/* XPM */
static char *_a5d2173e65d40e5a156f569771098576GAVFW1Ms8gqt1Pi[] = {
/* columns rows colors chars-per-pixel */
"50 50 165 2 ",
"   c #160200",
".  c #1B0100",
"X  c #261105",
"o  c #2E1507",
"O  c #371307",
"+  c #3C1703",
"@  c #3C1A06",
"#  c #331608",
"$  c #3D1709",
"%  c #361A0A",
"&  c #3B1D0B",
"*  c #3E220C",
"=  c #421B06",
"-  c #4D150D",
";  c #441F0C",
":  c #56130F",
">  c #4F1E10",
",  c #511E10",
"<  c #641E15",
"1  c #44240D",
"2  c #4B240D",
"3  c #47280F",
"4  c #4D290F",
"5  c #542A0D",
"6  c #462710",
"7  c #4B2510",
"8  c #4C2C11",
"9  c #522512",
"0  c #5A2113",
"q  c #532E13",
"w  c #5A2E15",
"e  c #553114",
"r  c #5B3216",
"t  c #5E3418",
"y  c #5E3B1C",
"u  c #632A17",
"i  c #6A271A",
"p  c #662C19",
"a  c #6A2D1A",
"s  c #613317",
"d  c #6A3617",
"f  c #633519",
"g  c #6A361B",
"h  c #66381A",
"j  c #6D3A1D",
"k  c #70371E",
"l  c #713D1E",
"z  c #5A3720",
"x  c #643D23",
"c  c #6F3C20",
"v  c #763521",
"b  c #7A3422",
"n  c #723E21",
"m  c #793C24",
"M  c #5A4D1C",
"N  c #53531B",
"B  c #60431B",
"V  c #6E441F",
"C  c #664124",
"Z  c #67452B",
"A  c #6B462C",
"S  c #6A492E",
"D  c #764123",
"F  c #7A4525",
"G  c #714C22",
"H  c #7D4827",
"J  c #7F4429",
"K  c #7E4A29",
"L  c #665A21",
"P  c #785427",
"I  c #735D26",
"U  c #7D5229",
"Y  c #7F5D2C",
"T  c #6B4C36",
"R  c #666123",
"E  c #6A6725",
"W  c #756527",
"Q  c #706927",
"!  c #776229",
"~  c #7D612B",
"^  c #746929",
"/  c #786F29",
"(  c #6D7027",
")  c #717E2B",
"_  c #7B7C2E",
"`  c #893F2D",
"'  c #804A27",
"]  c #84472B",
"[  c #8B442F",
"{  c #834D2B",
"}  c #8B4D2F",
"|  c #86512E",
" . c #89522E",
".. c #825B2D",
"X. c #8B4C30",
"o. c #924F35",
"O. c #865331",
"+. c #8B5531",
"@. c #8E5934",
"#. c #8B5C3B",
"$. c #905433",
"%. c #915B36",
"&. c #935E39",
"*. c #80702E",
"=. c #8D6134",
"-. c #8C6D35",
";. c #976037",
":. c #986137",
">. c #96613A",
",. c #9B663E",
"<. c #9D683F",
"1. c #8D7337",
"2. c #946444",
"3. c #9A6641",
"4. c #9D6840",
"5. c #9D6B46",
"6. c #9F6C45",
"7. c #9D6C4A",
"8. c #9F7253",
"9. c #A26C43",
"0. c #A46D43",
"q. c #A26D44",
"w. c #A16F49",
"e. c #A67046",
"r. c #A1704C",
"t. c #A4734D",
"y. c #AB774F",
"u. c #B0794B",
"i. c #A37553",
"p. c #A67651",
"a. c #A87751",
"s. c #A97955",
"d. c #AB7A55",
"f. c #A77A59",
"g. c #AC7E5B",
"h. c #B57F52",
"j. c #75872E",
"k. c #78842E",
"l. c #7C8030",
"z. c #7B8E31",
"x. c #7D9232",
"c. c #848C35",
"v. c #8C8539",
"b. c #8D8E3A",
"n. c #839536",
"m. c #849B37",
"M. c #8A9139",
"N. c #8CA43D",
"B. c #84A939",
"V. c #88B83D",
"C. c #AE805C",
"Z. c #B1825E",
"A. c #B6855D",
"S. c #B28461",
"D. c #BB8C65",
"F. c #B3896A",
"G. c #BB9271",
"H. c #BF997B",
"J. c #C09A7C",
"K. c #87D441",
"L. c #8CD443",
"P. c #8DE246",
"I. c #92EB4A",
"U. c #94F14B",
"Y. c #C09C80",
/* pixels */
"4.,.>.,.<.<.<.<.<.<.<.<.<.<.<.<.<.<.<.<.<.<.<.<.<.<.<.<.<.<.<.<.,.,.<.,.,.<.<.<.,.<.<.<.>.4.4.,.<.>.",
",.4.9.,.>.,.<.4.<.<.<.<.<.<.<.4.,.>.:.>.<.4.4.,.,.<.<.,.,.<.<.<.,.,.<.,.,.<.<.<.,.4.,.@.@.s.F.r.<.,.",
"<.,.,.C.p.,.<.,.,.4.<.,.,.<.4.4.>.w.s.t.4.<.<.,.,.<.4.,.,.4.,.>.<.4.<.<.<.<.4.,.<.4.4.F  .t.s.7.>.4.",
"4.@.%.S.s.>.4.,.,.<.<.,.,.4.>.,.y.G.Y.S.6.%.>.4.<.4.4.,.4.q.q.5.,.<.4.<.<.,.,.,.,.<.q.O.g { ;.>.,.4.",
"4.O.g l K >.9.,.,.,.,.,.,.<.&.K { 2.7.>.@. .>.<.<.&.%.,.@.{ g.H.s.>.>.,.,.>.>.,.,.,.,.4.@.+.,.<.>.>.",
",.>.K D | @.@.>.>.>.>.>.>.>.,.+.l d d ' @.>.>.>.>.@.&.h.q.D D 2.5.%.&.>.>.>.>.>.>.>.>.>.,.%.>.>.5.3.",
"&.>.<.<.>.K O.>.>.%.&.&.&.>.&.,.<.>.%.@.>.>.&.&.&.&.>.q.<.,.{ F  .@.>.>.>.%.%.>.>.&.&.%.,.e.>.&.p.>.",
"%.%.%.%.&.%.%.%.%.w.,.%.%.%.%.%.%.&.>.@.%.%.%.@.w.F.3. .@.&.>.>.%.&.&.%.%.r.r.@.%.&.%.%.>.q.>.%.F { ",
"%.%.@.%.%.%.%.%.| #.>.%.%.%.%.@.%.%.%.%.%.%.+.{ 3.Z.3.} o.%.@.@.%.%.%.@.H p.S.%.@.%.%.%.@.+.%.@.+.%.",
"@.@.@.@.@.@.@.%.O.D +.@.+.@.@.@.@.@.@.@.@.%.@.D f l J @.-.@.@.@.@.@.@.%.F D %.%.@.@.@.@. . .@.@.%.@.",
"+.@.| j D  .+. .@.%.+.%.0.@.+.@.+.+.@.+.+.+.@.+.F D c.L.K.-.X.@.+.+.+.+.@.{  .| | @.+.+.&.>.+.@.+.+.",
"+.@. .#.7.@. .+.+.+. .%.9.@.+.+.+. .+.@.+.+.+.+.$.$.M.V.M.@.X. .+.@.+.+.+.@.@.+.+.+. . .Z.p.{  .+.+.",
"+.|  .S.J.f. .@.@.+.@.{ { @.@.+. .@.@.+.+.+.+.+.+.+.X.[ ` +.+.+.+.@.@.+.+.+.+.@.+.@.+.+.O.D | +.+.+.",
"%. .D @.g.a.@.' +.@.+.+.+.+.+.| &.u.@. .+.+.+.+.+.+.+.+.+.+.@.@.+.{ +.+.@.| { @.+.+.@.+.D K @.@.+.+.",
"&. . .F @.&.| H | @.@.+. . .+.+.@.&.+.+.+.+.@.{ { @.+.+.@.+.+.@.@.| +.@.+.@.+.+.X.@.X.[ $.%.@.@.+.@.",
"@.+.%.@.| +.@.@.@.@.@. .@.@.@.@.+.| @.@.@.+.@.+.@.@.@.+.@.@.+. .|  .+.@.@.@.+.=.1.N.v.b.-.+.+.| | @.",
" .@.+.|  .+.+. .{ ] H i.g. .| { { { { { K K K |  .{ { | { { K F F F K K K K J ..c.n.n.c.~ D H H D n ",
"F K H D D J U *.D P H 5.O.j H D D F H g s H F D D F D D F D F F D F F n D F F n m v v b m F F H D n ",
"F F F D n ~ n.B.n.m.Y k f D K F D D D F D H H D F H F D F F D F F F F H F F H F F F D l g l F F H K ",
"F F F F m U ~ P Y U F n F ' H H D K | H K D D H H K F H F H D F H F F F F F D D H D l O.&.O.F D H H ",
"H F D F H ' m m m D F H ' c g H D g.s.D F F F H F n H D F H D F H F F H F D F F F | p.H.J.C.&.H F D ",
"F F F H n c F F F D l l F D c F { ,.D j H F F H n s H D F F F F n n F F F F F F F %.r.g.s.,.>. .D F ",
"D F F F 9 ; D H n F 8.i.H D H F F j g D F D D F F F F F F D D D i.7.l D F F F F D j d j D  .| F D F ",
"D D D F g g D D l @.D.A.K j D n D D c c F D D D D F D n D D l { s.@.j D c D D n D D D l l F D D D D ",
"D c n D D F D n D @.{ l g D n n D D c c D j n D n j D n n D n F n s n n w n D n D D D D D n n n n n ",
"n n D D n n n n c n s s c n n n c n n n n n n D g w n n n n j n g n D n n n n D n n n n n n j c n j ",
"c c q w n n g j j j j n n c n j g n j g n n j a i j c j n c n n n c j n n n g f n n n n n c n n c n ",
"j j ; 7 j j g j j j n j g j j j n n n j j j j G l.! a g j j g g j j g j j j g f j j j j j j g j j j ",
"g j g g j g j j g j g s j j g c f q g j j i ^ P.U._ i g g j g g j j j g j j j j j g g j j j g g j j ",
"j j j j j j j j j j f f j g j n w O w n j a G _ ! j j g g j j j g g j j f w j j j g g l j j j j j j ",
"j j j j j l 9 w n j l l g g j j j s j g g D u : i j j j j g j l w s l j g f j j j j j g j j j g g j ",
"j j a p i g s f j j g g j j j j g l l g g l s w l j f g j g g j g j j j j j g j j n w $ w l j g g j ",
"g G W W W I a l j j g j l j j j j j j j l j l l j j j j j l l j l l j l j g j j j l f 9 f l j l l l ",
"g g x.I.I.L./ a j j j j j j j j j j j j g j j j l j j l j f g l d x A j g l l j j j l l l l l j g w ",
"j g V _ k.z.W j f f j j j g g g j j l w 1 j j g w g j g j f g g 5 y Z t j w 9 l j f f j j w q l g w ",
"g g p < < < p g f f j f f g g g s f j f s g g f w g g s g j j s 1 = 1 w l w q j g f g j f w w j g j ",
"g g g s s g s s l g h s f g g g f f g g j r s g j g h g g f f g r 2 2 f g j g s g g s s f g j f f g ",
"r s h s f j g q 8 f f h g w 1 h g f f f f f h f s C S s f g r r j g g h f f f f f h s s g g f s s s ",
"r s s h w q s % % s h s h w q h f f r e h s ; t r t t 4 r h s s f r r h e r f f s s h g q w g s s s ",
"s s s g # . q e e s e s s e t h s s r r s t q s w = + 4 f s s s s s s s s s s s r e s s w w t Z x s ",
"t r w s q 2 r h f r w r t s s w w s s s t r s s e q w e r t t t q r s r > 0 0 w t s r t s w t S Z s ",
"t q z x f h r e r r t t r r s r e r r t t q e t r e s r e r r t e r w B N R Q M , r t t t 2 2 q w 8 ",
"w y T A e q t e q e e e e t ; q t e e e e r s t w & e t e e e q e e w w x.I.U.L.E 9 w t 8 & = + 1 8 ",
"w e C f 2 2 t e e e e e e e 3 q r e q q e e 8 e e e e q e e e q e e q q y ( ) j.L 8 q t 1 6 r q e t ",
"w w 5 = + 8 e e e e e q 8 e r e e t r e r 8 X 1 t e w q e e e e 8 e q e 9 - - - 9 e e e e r q e e e ",
"e 4 @ @ 4 e e e q q e q q e q e 8 % 6 e e 8 & 6 e q e e q q e q 8 e e e q e e q e q 8 e e e 8 8 e q ",
"q 8 4 8 e e 8 8 q q q e q q q r 3   % r q q r r q q q q q q q e q 8 e e 8 & 8 e q q 8 e e q q e q q ",
"8 q e e q e # # e q 8 q 8 8 q q e 3 8 8 8 e 3 & q q 8 q 8 8 8 e & & e q 8 3 8 q 8 q 8 8 8 q q 8 8 q ",
"8 8 8 3 8 8 3 3 8 8 8 8 8 8 8 8 & 8 e 8 8 e 3 & 8 8 8 8 8 8 8 8 8 8 8 8 8 8 8 8 8 e 1   % e 8 8 8 8 ",
"8 8 8 8 8 8 8 8 8 8 8 8 8 8 8 8 & 1 8 8 8 8 8 e 8 8 8 8 8 8 8 8 8 8 8 8 8 8 8 8 8 8 3 o * 8 8 8 8 8 "
};
