/* XPM */
static char *d1af8249387f4dfcdd3ac2fb65d2632cunSro8q2sCltHb02[] = {
/* columns rows colors chars-per-pixel */
"50 50 229 2 ",
"   c #180100",
".  c #250000",
"X  c #330302",
"o  c #380B02",
"O  c #2A1306",
"+  c #3A1907",
"@  c #331608",
"#  c #3B1D0A",
"$  c #3E220C",
"%  c #410A0B",
"&  c #481A05",
"*  c #44140D",
"=  c #4B150D",
"-  c #451E0C",
";  c #4C1B11",
":  c #521E13",
">  c #641E15",
",  c #44240D",
"<  c #4B240D",
"1  c #47280F",
"2  c #4B290F",
"3  c #552709",
"4  c #462710",
"5  c #4B2410",
"6  c #4C2C11",
"7  c #532512",
"8  c #5A2516",
"9  c #522D13",
"0  c #5A2D15",
"q  c #582718",
"w  c #5E2B18",
"e  c #553114",
"r  c #5B3316",
"t  c #5E3419",
"y  c #5E3C1C",
"u  c #662F00",
"i  c #6E3A0B",
"p  c #733C08",
"a  c #622C16",
"s  c #63241A",
"d  c #622D1A",
"f  c #6B2D1A",
"g  c #623317",
"h  c #6B3715",
"j  c #63351A",
"k  c #6A361C",
"l  c #65381A",
"z  c #6C3A1D",
"x  c #713D1E",
"c  c #552B20",
"v  c #5A3623",
"b  c #653D24",
"n  c #6E3C20",
"m  c #713E21",
"M  c #773A24",
"N  c #57511C",
"B  c #7B440F",
"V  c #67441D",
"C  c #6A4427",
"Z  c #66432A",
"A  c #754123",
"S  c #7A4525",
"D  c #744A23",
"F  c #7D4826",
"G  c #764229",
"H  c #7A452A",
"J  c #7D492B",
"K  c #685823",
"L  c #795627",
"P  c #6A4A36",
"I  c #78523A",
"U  c #686424",
"Y  c #756527",
"T  c #7C612D",
"R  c #746C28",
"E  c #757C2C",
"W  c #725646",
"Q  c #824C15",
"!  c #8D571B",
"~  c #A1671F",
"^  c #804A26",
"/  c #8B452F",
"(  c #824C2B",
")  c #86512E",
"_  c #89532E",
"`  c #895929",
"'  c #965D2A",
"]  c #824D30",
"[  c #8B4D30",
"{  c #865231",
"}  c #8B5531",
"|  c #8E5934",
" . c #845C3A",
".. c #8B5A3A",
"X. c #945932",
"o. c #925C35",
"O. c #935E39",
"+. c #996327",
"@. c #89683A",
"#. c #9A6835",
"$. c #96613A",
"%. c #9B663E",
"&. c #9D683E",
"*. c #A66D2A",
"=. c #AD732E",
"-. c #A26A3B",
";. c #A66C38",
":. c #AA7235",
">. c #AB723C",
",. c #B77C3A",
"<. c #946744",
"1. c #9D6941",
"2. c #9D6C4A",
"3. c #816351",
"4. c #A26D44",
"5. c #A46E46",
"6. c #AC7241",
"7. c #A3724D",
"8. c #AB764B",
"9. c #A97949",
"0. c #B27644",
"q. c #B57A43",
"w. c #B97A41",
"e. c #A57551",
"r. c #A87A56",
"t. c #AA7C58",
"y. c #B57F52",
"u. c #A87F64",
"i. c #77862E",
"p. c #7B8E31",
"a. c #7A9232",
"s. c #898B38",
"d. c #839335",
"f. c #BD823F",
"g. c #92A93E",
"h. c #C9893B",
"j. c #E4AC3F",
"k. c #FEC137",
"l. c #BD8345",
"z. c #BC854C",
"x. c #B99843",
"c. c #AE805C",
"v. c #B2825D",
"b. c #B28461",
"n. c #B38A6B",
"m. c #BE9778",
"M. c #C38946",
"N. c #C98C47",
"B. c #C1864A",
"V. c #C58A4A",
"C. c #C99544",
"Z. c #D79A45",
"A. c #D3954D",
"S. c #DB9C4A",
"D. c #C49356",
"F. c #CE9152",
"G. c #D39553",
"H. c #D69854",
"J. c #DA9B56",
"K. c #D99B59",
"L. c #D8AC4C",
"P. c #D6B74D",
"I. c #D7A151",
"U. c #DEA05C",
"Y. c #E2A44D",
"T. c #EAA94B",
"R. c #F6AF4D",
"E. c #E7B448",
"W. c #F7B54B",
"Q. c #FDBE4F",
"!. c #E3A453",
"~. c #E4A956",
"^. c #EDAD55",
"/. c #E3A459",
"(. c #ECAC5A",
"). c #F2AD56",
"_. c #F1AE59",
"`. c #EDB154",
"'. c #EAB75F",
"]. c #F5B356",
"[. c #F9B656",
"{. c #F3B851",
"}. c #FBBA56",
"|. c #F5B458",
" X c #F8B759",
".X c #F6BA59",
"XX c #FBBB5A",
"oX c #C09A7C",
"OX c #DAB675",
"+X c #EFAE61",
"@X c #F1AF62",
"#X c #F4B263",
"$X c #F8B566",
"%X c #FDBC62",
"&X c #8DD544",
"*X c #92EB4A",
"=X c #96F04C",
"-X c #F7C04D",
";X c #FEC34D",
":X c #FFCB4F",
">X c #EDC654",
",X c #FEC454",
"<X c #FECB53",
"1X c #FEC35C",
"2X c #FFCB5C",
"3X c #FFD153",
"4X c #FED35C",
"5X c #FFDB5E",
"6X c #FFE75D",
"7X c #FFC361",
"8X c #FFCA64",
"9X c #FFC36B",
"0X c #FFCD6B",
"qX c #FFD365",
"wX c #FFDB64",
"eX c #FFD26A",
"rX c #FFDC6B",
"tX c #FFDA72",
"yX c #FFD57B",
"uX c #FFE461",
"iX c #FFEA65",
"pX c #FFE56A",
"aX c #FFF568",
"sX c #FFE27F",
"dX c #FFF276",
"fX c #C09C80",
"gX c #FFDC8A",
"hX c #FFE893",
"jX c #FFF6B1",
/* pixels */
"1.%.$.%.%.%.%.%.%.%.%.%.%.%.%.%.&.%.%.%.%.%.%.%.%.%.%.%.&.%.%.%.%.%.&.%.%.%.%.%.%.%.%.%.$.1.1.%.%.$.",
"%.1.4.%.$.%.&.1.%.%.%.%.&.%.%.1.%.$.$.$.%.1.1.%.%.%.&.%.%.&.%.%.%.%.&.%.%.%.%.%.%.1.%.| | r.n.7.%.%.",
"&.%.%.c.e.%.%.%.%.1.&.%.%.%.1.1.$.5.r.7.1.&.%.%.%.%.1.%.%.1.%.$.%.1.%.&.&.&.1.%.%.1.1.S _ 8.r.2.$.1.",
"1.| o.b.r.$.1.%.%.%.%.%.%.1.$.%.8.m.fXb.1.o.$.1.%.1.1.%.1.5.5.2.%.%.1.%.&.%.%.%.%.&.5.{ k ( $.$.%.1.",
"1.{ k x J $.4.%.%.%.%.%.%.%.O.J ( <.2.$.| _ $.&.%.O.o.%.| ( t.m.r.$.$.%.%.$.$.%.%.%.%.1.| } %.%.$.$.",
"%.$.J A ) | | $.$.$.$.$.$.$.%.} x h h ^ | $.$.$.$.| O.y.5.A A <.2.o.O.$.$.$.$.$.$.$.$.$.%.o.$.$.2.1.",
"O.$.%.&.$.J { $.$.o.O.O.O.$.O.%.%.$.o.| $.$.O.O.O.O.$.5.%.%.( S _ | $.$.$.o.o.$.$.O.O.o.%.5.$.O.e.$.",
"o.o.o.o.O.o.o.o.o.5.%.o.o.o.o.| o.O.O.| o.} ] | 2.u...G J ] ..O.o.O.O.o.o.7.7.| o.O.o.o.$.5.$.o.S ( ",
"o.o.| o.o.o.o.o.) ..$.o.o.] J ] ] ] ] { | $.6._ O.v.z.w.l.q.%.{ J { o.| ^ e.b.o.| o.o.o.| } o.| } o.",
"| | | | | | | o.{ A } { J %.B.A.A.A.I.q.] (./.t f.,X1X2X1X1X}.!.l.| G { J A o.o.| | | | _ _ | | o.| ",
"{ | ) z A _ } _ | o.H { A.XX2X2X1X1XwX`.{ G.6.m M.5X<X<X<X<X3X2X8X|.M.| G J _ ) ) | } } O.$.} | } } ",
"} | _ ..2.| _ } | G o.`.8X,X<X|.|.|.1XQ.( %.V.6.0.2X<X}.1XR.,X1X].XX8X.Xl.( J | } } _ _ v.e.( _ } } ",
"} ) _ b.oXr._ | H O.XX1X}.:X}.|.|.,X1X{.G o.>.J -.1XXXXXS.@.9.XXXX).(.XXqX~.} J | | { } { A ) } } } ",
"o._ A | t.e.| A } |.<X,X<X2XXX|.,X:X,XXXM.H J { H F.7XeX,.7 Z ! .X1X(./.|.qX!.J { { | } A J | | } } ",
"O._ _ S | O.) n A.4XyXeX<XT.T.eX2X;X,X,X6Xl.G ( H | (.eXQ X o 3 ^.7X/.K.].XX2X>.M | [ / } o.| | } | ",
"| } o.| ) } J -.Q.gXgX<XS.<.<.=.`.2X<X<XwX0.H | H ( ^.1Xh.,.*.h.1X]./.]. X|.1XV.T g.s.s.@.{ } ) ) | ",
"_ | } ) _ { M w.<XyX8X<X#.c r . ' wX3X1X0.m F J ( Y.XX].8XeXeX8X X].(.XX X|.XXI.E d.d.d.T S F F A m ",
"S J F A A S b x.,X0X2X1XZ.B u i C.2X4XV.; A F q f.eX(.|.|.|.|. X|.].]. X|.}.0Xl.f M M M M S S F A m ",
"S S S S M T a.g.XXyX<X}.7X%X!.(.%X}.%XO.d F m (  X|.]. X|.|.|.|.|. XXX X}.1X$X_ k S S x k x S S F J ",
"S S S S M L K ` 8XwX,X%X(.#X%X X X1X!.S m k d ,.8X).,X3X1X X|.|.|.|.|.|.7X#X$.k F A x { O.{ S S F F ",
"F S A S F ^ s w.rXXXH.0._ o.(.8X1X1X(.( ( _ q >.7X}.;X`..X8XXX]. X}.XX7XB.d 7 z F _ e.m.oXc.O.F S A ",
"S S S F m n m w.F.| j : w j J 0.A. X0XO.^ M.w A 7XwXY.b r +..XXXXXXX%X6.x #.0.( z o.7.t.r.%.$._ A A ",
"S S S S 7 - A A d k 8.z._ j >.:.q ) >.k S .X~.o.q.8X1XC.Q X S.eX%XU.( ^ >XqX8XU.n g h z A _ ) S S S ",
"A A A S k k A A w M.rXrXG.8 ].dX;.7 8 ) ,.8XdXA.: o.@XrX1XZ.|.G.8.w ^ aXuX[.1X8X6.d A x x S A A A A ",
"A n m A S S A m j q.wX%X| 8 #.'.N.= k S.X.-.l._ w ; | %X0XtX6.w * ` aX<X>.D.^.1X(.H k A A m m m M m ",
"m m A A m m m m k k A.B.d z k : k #.#.z o.X.X w q * w %./.6.= % ` uXpXh.W W =.%X7X6.w m m m z n m z ",
"n n 9 0 m m k z m k j k z A q A P.iXwX>X>XL.C.L.L.+.= * j : m x.uX2X4XZ.I & +.9X1XA.k k m n m m n m ",
"z z - 5 z z k z z z z k k q n 5XiX,X}.2X5XuXiXiXaXuXx.` : d 4XaX1X[.4X=.7 & N.8X1XH.n j z z k z z z ",
"k z k k z k z z z z k j d * C.pX).;X2X7X X|.XXXX}.1XwXuXE.L.uX1X_.1X2Xp X *.8XXXXXB.j k z z k k z z ",
"z z z z z z z z z z k w z M.8XW.,XrXE.S.1XXX].|.|.|.). XwXiX1X|.|.|.1XY.C.7XXXXX#X&.8 x z z z z z z ",
"z z z z z x 7 8 x z x 8 ` qXQ.0XjXOX .t ~ 7XXX|.|.|.|.|.|.|.|.|.|.|.].7X0XXX}. XH.A a k z z z k k z ",
"z z f a f k j k z z k q _ }.0XhXhXC.v 3 o h.0X|.|.|.|.|.XX2X1X|.|. X].|. XXXXX+X%.a w + w x z k k z ",
"k D Y Y Y L k x z z k w F W.gXyXk.Q.,.i 3 Y.7X|. X|.|.2X:Xj.}.XX X].^. X XXX|.F.z g k 7 k x z z x x ",
"k k p.*X*X&XR f z z z k g S.sX0XR.XX8XT.{.$X).XX|.|.2XE.9.I i ].XX(.].XXXX].@X6.0 z x x x x x z k w ",
"z k V E i.p.Y z j k z z 7 ,.5X,X|.].(.#X#X/.|.XX|.1X-X1.P 0 B |.XX].XX X(.U.#X-.0 k k z z w 9 x k w ",
"k k f > > > a k k k z k 7 S 1X<X}._.(.(.J.(.XX|.|.1XS.3.3 p 7X1X|.|.XX|././.#Xo.7 k k z k 0 0 z k z ",
"k k k g g k g g x k l j g 5 N.qX}.|._.XXXX X X|.|.XX.X` . ! eX X|.|.XX|./.$Xz.0 g k g g k k z k k k ",
"r g l g k z k 7 6 k k l k - 9 7X1X X].|.XXXX|._.|.|.7XT.=.Y.1X XXXXX X(.#XF.k 7 k l g g k k k g g j ",
"r g k l 0 7 g + # g l g l e o >.eXXX(.].|.].(.|.XXXX|.XXeX7X]. X|.].(.#Xz.j 7 l g g l k 7 9 k g g g ",
"g g g k @   9 e e g e g k e 9 7 B.9X%X|.(.(.(.].].(./././././.(.(.#XU.%.0 7 g g r e g g e 9 t Z b g ",
"t r 0 g 7 < r l g r 0 r t g l < < -.G.H.H.J.(.$X$X@X(.(.+X#X#X@XJ.>.V - * q 8 0 t g r t g 0 t P Z g ",
"t e v b l l r e r r t r r r g t 7 - 0 l l t D #.l.V.G.H.F.B.>.} l , < V N U R N : t t t t < < 7 9 6 ",
"e y P Z e 7 t e 9 e e e e t - 7 g e 7 < 7 7 < , , + t l e 7 , # 6 e 0 8 a.*X=X&XU 7 e t 6 # - + , 9 ",
"9 e C l < < t e e e e e e e 1 9 r e 9 9 r e 6 e e 7 6 < 7 9 9 9 e e 9 7 y R E i.K 6 9 t , 4 r 9 e t ",
"9 0 3 & + 6 e e e e e 9 6 e r e e t r e r 6 O , t e 9 6 e e e e 6 e 7 e 7 = = = 7 e e e e r 9 e e e ",
"e 2 + + 2 e e e 9 9 e 9 9 e e e 6 + 4 e e 6 # 4 e 9 e e 9 9 e 9 6 e e 9 9 e e 9 e 9 6 e e e 6 6 e 9 ",
"9 6 2 9 e e 6 6 9 9 9 e 9 9 9 r 1   # r 9 9 r r 9 9 9 9 9 9 9 e 6 6 e e 6 # 6 e 9 9 6 e e 9 9 e 9 9 ",
"6 9 e e 9 e @ @ e 9 6 9 6 6 9 9 e 1 6 6 6 e 1 # 9 9 6 6 6 6 6 e # # e 9 6 1 6 9 6 9 6 6 6 9 9 6 6 6 ",
"6 6 6 1 6 6 1 1 6 6 6 6 6 6 6 6 # 6 e 6 6 e 1 # 6 6 6 6 6 6 6 6 6 6 6 6 6 6 6 6 6 e ,   # e 6 6 6 6 ",
"6 6 6 6 6 6 6 6 6 6 6 6 6 6 6 6 # , 6 6 6 6 6 e 6 6 6 6 6 6 6 6 6 6 6 6 6 6 6 6 6 6 1 O $ 6 6 6 6 6 "
};
