/* XPM */
static char *_41686ed6ce146eea7e15061876439daCNPqyQZie9pqTNup[] = {
/* columns rows colors chars-per-pixel */
"50 50 214 2 ",
"   c #0D0600",
".  c #00000B",
"X  c #160200",
"o  c #160B05",
"O  c #18110E",
"+  c #0C1115",
"@  c #1B1817",
"#  c #241304",
"$  c #2C1505",
"%  c #2C1803",
"&  c #241208",
"*  c #2A1408",
"=  c #2D1809",
"-  c #3C1703",
";  c #341906",
":  c #3B1A05",
">  c #331609",
",  c #341B0B",
"<  c #3A1D0C",
"1  c #2B1B15",
"2  c #1F201F",
"3  c #3C210D",
"4  c #292018",
"5  c #392515",
"6  c #3B2421",
"7  c #441B05",
"8  c #4D150D",
"9  c #421F0B",
"0  c #4F1E10",
"q  c #571D12",
"w  c #601B12",
"e  c #43230E",
"r  c #4B240D",
"t  c #47280F",
"y  c #4C290F",
"u  c #52260D",
"i  c #55290E",
"p  c #5C2B0E",
"a  c #442611",
"s  c #4A2611",
"d  c #442814",
"f  c #4C2C12",
"g  c #492C19",
"h  c #522612",
"j  c #522D13",
"k  c #562816",
"l  c #5A2E14",
"z  c #5D2E1A",
"x  c #4A331B",
"c  c #553115",
"v  c #5B3316",
"b  c #55321A",
"n  c #5C3419",
"m  c #5E3A1A",
"M  c #602F0D",
"N  c #65300F",
"B  c #6D340E",
"V  c #6F2E14",
"C  c #633213",
"Z  c #6B3512",
"A  c #6B3914",
"S  c #623519",
"D  c #69361C",
"F  c #643A1B",
"G  c #6B3A1C",
"H  c #733A12",
"J  c #7B3F13",
"K  c #773B19",
"L  c #723E1D",
"P  c #4F3428",
"I  c #593621",
"U  c #5E3C29",
"Y  c #643E24",
"T  c #6C3A22",
"R  c #723E23",
"E  c #7A3C27",
"W  c #57501C",
"Q  c #60431B",
"!  c #6C411E",
"~  c #7D4114",
"^  c #73421D",
"/  c #7A461E",
"(  c #7D4A1D",
")  c #5C4034",
"_  c #6D4220",
"`  c #68452A",
"'  c #754323",
"]  c #7A4525",
"[  c #754923",
"{  c #7D4B25",
"}  c #794428",
"|  c #7E4B2A",
" . c #665A21",
".. c #684735",
"X. c #764E39",
"o. c #72523C",
"O. c #686424",
"+. c #766C28",
"@. c #6D7027",
"#. c #717E2B",
"$. c #765546",
"%. c #803D0F",
"&. c #834515",
"*. c #894614",
"=. c #864917",
"-. c #8C4B16",
";. c #844719",
":. c #844C1D",
">. c #8B4C1A",
",. c #914E18",
"<. c #8C511C",
"1. c #975116",
"2. c #92531B",
"3. c #9A541C",
"4. c #96591E",
"5. c #9C5A1D",
"6. c #A05517",
"7. c #A6661E",
"8. c #824C22",
"9. c #8D4F20",
"0. c #86452D",
"q. c #834D2B",
"w. c #89492F",
"e. c #835124",
"r. c #8B5322",
"t. c #8B5827",
"y. c #86522C",
"u. c #89532D",
"i. c #8E5A2C",
"p. c #915623",
"a. c #955B22",
"s. c #9B5D22",
"d. c #935C2C",
"f. c #985E29",
"g. c #844F30",
"h. c #865231",
"j. c #8B5532",
"k. c #8E5934",
"l. c #865838",
"z. c #915B36",
"x. c #935E39",
"c. c #A45D24",
"v. c #AA5E25",
"b. c #946227",
"n. c #9D6225",
"m. c #9D622A",
"M. c #9E7229",
"N. c #9B7C2C",
"B. c #856A34",
"V. c #976433",
"C. c #976037",
"Z. c #96613A",
"A. c #99633B",
"S. c #9A653D",
"D. c #9C673F",
"F. c #9D683F",
"G. c #8A7534",
"H. c #A26526",
"J. c #AB6525",
"K. c #A66926",
"L. c #AB6C26",
"P. c #A26628",
"I. c #A56A29",
"U. c #AA6D29",
"Y. c #B26B27",
"T. c #B26E25",
"R. c #A77528",
"E. c #AC712A",
"W. c #B97126",
"Q. c #B37329",
"!. c #A46E34",
"~. c #C57B29",
"^. c #835F4A",
"/. c #825F57",
"(. c #956442",
"). c #9B6741",
"_. c #9D6840",
"`. c #9E6B45",
"'. c #9C6C4A",
"]. c #8D6B57",
"[. c #A36C43",
"{. c #A26D44",
"}. c #A16F49",
"|. c #A3724C",
" X c #A97448",
".X c #A67651",
"XX c #A87A56",
"oX c #AC7E5A",
"OX c #B57F52",
"+X c #788D30",
"@X c #7E8C30",
"#X c #9D832D",
"$X c #89893A",
"%X c #978632",
"&X c #8A9737",
"*X c #949633",
"=X c #919F34",
"-X c #A6832D",
";X c #AA8E31",
":X c #8DA139",
">X c #93A335",
",X c #94AB39",
"<X c #8BBB3D",
"1X c #AC805E",
"2X c #B0825E",
"3X c #B28461",
"4X c #B3896A",
"5X c #BD9676",
"6X c #C09A7C",
"7X c #8CC740",
"8X c #87D845",
"9X c #90D744",
"0X c #93EB4A",
"qX c #C09C80",
/* pixels */
"_.S.Z.S.D.D.D.D.D.D.D.D.D.D.D.D.F.D.D.D.D.D.D.D.D.D.D.D.F.D.D.D.S.S.F.S.S.D.D.D.S.D.D.D.Z._._.S.D.Z.",
"S._.[.A.Z.S.F._.D.D.D.D.F.D.D._.S.A.C.A.D._._.S.S.D.F.S.S.F.D.D.S.S.F.S.S.D.D.D.S._.S.k.k.XX4X|.D.S.",
"F.S.S.1X.XS.D.S.S._.F.S.S.D._._.A.}.XX|._.F.D.S.S.D._.S.S._.A.Z.D._.D.F.F.F._.S.D._._.] u.|.XX'.Z._.",
"_.k.z.3XXXZ._.S.S.D.D.S.S._.A.S..X5XqX3X`.z.Z._.D._._.S._.{.{.`.S.D._.D.F.S.S.S.S.F.{.h.D q.C.A.S._.",
"_.h.D L | Z.[.S.S.S.S.S.S.D.x.| q.(.'.A.k.u.A.F.D.x.x.S.k.q.oX5XXXA.Z.S.S.A.Z.S.S.S.S._.k.j.S.D.Z.Z.",
"S.Z.| ' y.k.k.A.A.Z.Z.Z.Z.A.S.j.L A A 8.k.Z.Z.Z.A.k.x.OX{.' ' (.`.x.x.A.Z.A.A.Z.Z.Z.Z.A.S.x.Z.A.`.).",
"x.Z.D.F.Z.| h.Z.Z.z.x.x.x.Z.x.S.D.Z.z.k.Z.A.x.x.x.x.Z.{.D.S.q.] u.k.Z.Z.Z.z.z.x.Z.x.x.x.S.{.Z.x..XZ.",
"x.x.z.x.x.z.x.x.x.}.S.z.x.x.x.z.x.x.Z.k.z.x.x.k.}.4X).u.k.x.A.Z.x.x.x.x.z.|.|.k.z.x.x.z.Z.{.Z.z.] q.",
"z.z.k.x.z.x.z.z.y.l.Z.z.z.z.z.k.k.z.z.z.z.k.j.q.(.oX(.j.z.z.k.k.z.z.z.k.8..X3Xz.k.z.z.z.k.j.z.k.j.z.",
"k.k.k.k.k.k.k.z.h.' j.k.j.k.k.k.k.h.k.k.k.z.k.' L K q.k.k.k.k.k.k.k.k.z.] ' x.z.k.k.k.k.u.u.k.k.z.k.",
"h.k.y.G ' u.j.u.k.z.h.z.{.k.h.j.u.d.f.f.m.m.P.c.3.a.n.P.m.m.d.d.k.h.h.h.z.y.u.y.y.k.j.j.x.Z.j.k.j.j.",
"j.k.u.l.'.k.u.j.j.j.u.x.[.j.h.d.H.K.K.K.K.K.H.#X,X7X#Xc.K.K.K.K.H.m.d.u.h.k.k.j.j.j.u.u.2X.Xq.u.j.j.",
"j.y.u.3X6XXXu.k.k.j.k.q.| h.j.H.K.H.H.H.H.H.c.*X8X<XN.c.H.H.H.H.H.K.J.n.j.w.w.k.j.k.h.j.h.' y.j.j.j.",
"z.u.' k.oX.Xj.q.h.h.j.i.d.m.P.I.I.H.H.H.H.H.I.I.I.c.c.P.I.I.I.I.H.H.H.N.$Xh.B.l.h.j.k.j.' | k.k.j.j.",
"x.u.u.] j.z.y.E 0.d.n.K.L.H.J.J.H.H.I.H.H.H.s.2.-.-.>.>.<.2.a.s.H.K.N.:X,X=X>XV.u.j.h.h.k.z.k.k.j.k.",
"k.j.z.k.y.G.&XB.%XR.K.K.2.&.A v &.-.a.U.U.s.~ J ~ ~ ~ ~ ~ ~ ~ &.=.s.I.R.b.o.m.W.T.H.m.V.h.g.k.y.y.k.",
"u.k.h.q.B.&X:X:X>XM.K.2.&.H 1 @ P ~ 2.s.2.-.-.-.-.-.=.&.&.&.&.&.J &.K.5.X./...c [ Q.K.4.a.q.} ] ' R ",
"] | | R ' | ] H.J.H.H.&.&.~ 1 4 2 G 6.J H Z C Z H J &.-.-.&.&.&.&.&.2.~ U ..1 O @ F -.B 5.m.R ] ' R ",
"] ] ] ] ' ] R r.L.L.I.>.J -.j O = M p h e 3 b j e e j v Z ~ -.-.-.-.-.*.n I g o + O B &.5.r.' ] ] | ",
"] ] ] ] ] | ' R e.a.H.I.2.-.C , r j n n f f _ G f t b b F v l v l l i u j v J v 5 j *.U.|.l.' ' ] ] ",
"] ] ' ] ] q.] ' T ] m.K.<.,.C a F y.t.F f f G F f f b ! i.| b a f a 3 f b f f p H 5.K.!. X XC.' R ' ",
"] ] ] | T S ' ] q.I.U.>.*.&.e f F 8.{ F j f ! F f f b G e.e.F n F c f F n n d e -.<.:.<.7.H.I.m.| ' ",
"] ] ] R h A m.P.s.5.2.-.H t , f F { { n b j ! F f f v ! y.[ n v n j b F b j < i 2.-.2.s.I.I.H.L.L.8.",
"' R T 8.n.Q.H.>.H Z C r $ , 3 t n { [ b b v _ F f j v ! t.[ b v n b v F b f , , C ~ -.2.>.a.H.K.s.] ",
"R D 8.U.Q.a.H &.~ r * # % 3 e e n { [ j b n [ F f c b ! t.! b b b n n m b a $ # # $ > r H J H.f.T T ",
"T r.L.H.I.s.-.>.1.-.e # % 3 e e b { [ f b b _ F f v j ! t.F b b v n n n f 3 $ = # o   , ~ 2.p.T D G ",
"{ Q.Q.I.n.L.I.b g ,.H $ $ ; t 3 j { { e f f F G j n a ! t.F b j v n n f a , # = #   , J s.E.n.r.R D ",
"' p./ r.K.L.Q.5 + _ %.> % % e e , [ t.a , < m F n f , [ e.F f a n F f a 3 $ $ > 9 i Z Z ~ <.H.Q.K.' ",
"D z D a.U.H.<.c ) ^.T ; % $ $ < * b [ s = , n b j 3 , G e.n 3 , F b 3 3 > ..X.B L :.1.2.4.a.H.n.E.a.",
"D D s.U.I.2.H j o.].$.$ # # # & = a n f = 3 b a , 3 3 v F a , , a 3 , 7 i ..$.:.s.m.T.I.U.U.8.D L L ",
"G D r.Q.I.a.W.{ 6 ) U C :   o * , < 9 < > , < < < < a m f < < , , , u ' 2.^ U P.e.x i.L.H.8.z z D D ",
"G D 8.r.e.e.K.U.[ b ! <.J e u H Z B N N C l i u e , , j f 3 , & e B h.].l.7.T.~.m . 4 L.K.n.r.D D G ",
"G G D S z K c.v.Y.L.Q.n.;.*.J >.c.s.s.s.s.5.3.>.&.Z i < , , & > H ~ o.o.g <.d.d.t.d ! L.H.K.Q.r.S L ",
"G G G D ( -X#XN.N.K.c.U.n.&.J ~ n.U.I.I.J.v.K.K.H.H.5.&.Z i r i Z H g 1 f n.y.{ d.L.Q.H.n.U.Q./ S l ",
"G G D S >.;X9X0X8X,XK.J.Q.L.4.=.:.U.K.H.N.>X<XN.c.I.I.K.K.s.2.2.3.3.>.e.H.K.K.K.K.K.n.K.Q.n.G D D l ",
"D D D D D L +.@X&X*Xn.p.r.r.8.D 8.n.s.c.=X8X<XM.c.H.H.H.I.U.Q.H.( :.U.Q.K.H.H.H.I.U.U.P.8.v h D G G ",
"D D D D n S q w V V D n l n S S D D n.Q.U.E.J.J.E.L.L.U.K.H.n.G s ( Q.U.U.U.L.K.n.a./ S z D G D D D ",
"v S F S D G D j s S S D D l e F S n L 8.9.9.r.r.:.e.y./ G G l k G r.r.8.:.( / ^ D n k n D D D C S C ",
"v S S F l j S , , S F S F l j D D F k h n j , k j b b e k n S D D k k z s k l b v n D F j l D C C C ",
"S S S D > X j l v S v S S v v D S S v v S v j S l 7 - y S S S S S S S S S S S S v v S S l l v ` Y C ",
"n v l C j r v F S v j v n n S l l S C C n v S S v j l v v v v v j v S v 0 k k l v S v n S l v ` ` C ",
"v j I Y F F v v v v v v v v S v v v v v v j v v v v S v v v v v v v l Q W O.+.W 0 v v n v r r j l f ",
"l m ..` v j v v j v v v v v 9 f n v v b v v S v l < v v v v v j v v l k +X0X0X9XO.h l n f < 9 - e f ",
"l v _ F r r v v b v v v v v t j v v j j v b f b v v b j v v b l v v j k m @.#.+X .f j n e s v j b v ",
"l l i 7 : f v c b b b j f b v b b v v b v f # e v v j f b b b b f b j b h 8 8 8 h v v c v v j b v b ",
"b y : : y b b b j j b j j b j b f , r b b f < t b j b b j j b j f b b b j b b j b j f b b b f f b j ",
"j f y f b c f f j j j c j j j v t X , v j j v v j j j j j j j c f f c c f < f c j j f b c j j b j j ",
"f j c c j c > > c j f j f f j f c t f f f b t < j j f f j f f b < < b j f t f j f j f y f j j f f j ",
"f f f t f f t t f f f f f f f f < f b f f c t < f f f f f f f f f f f f f f f f f b e X , c f f f f ",
"f f f f f f f f f f f f f f f f < e f f f f f c f f f f f f f f f f f f f y f f f f t $ 3 f f f f f "
};
