/* XPM */
static char *_7d549c52ad44915ec13041494e432eeDgkMMANCRt0TS4aG[] = {
/* columns rows colors chars-per-pixel */
"50 50 251 2 ",
"   c #190103",
".  c #291009",
"X  c #391807",
"o  c #3A1D0B",
"O  c #3B1218",
"+  c #3C250B",
"@  c #39231A",
"#  c #050025",
"$  c #01003A",
"%  c #160D3F",
"&  c #31132E",
"*  c #3D2A2F",
"=  c #4B0F05",
"-  c #461A0C",
";  c #481616",
":  c #531D16",
">  c #641E15",
",  c #44250E",
"<  c #48260C",
"1  c #4A2B0E",
"2  c #55280D",
"3  c #54310E",
"4  c #482614",
"5  c #4C2C11",
"6  c #522512",
"7  c #5B2417",
"8  c #522E13",
"9  c #5A2E15",
"0  c #553114",
"q  c #5B3316",
"w  c #5E3518",
"e  c #5E3C1C",
"r  c #63280D",
"t  c #682C18",
"y  c #623315",
"u  c #6B3516",
"i  c #633519",
"p  c #6A361B",
"a  c #66381A",
"s  c #6C3A1D",
"d  c #71391A",
"f  c #713D1D",
"g  c #481725",
"h  c #491D37",
"j  c #482628",
"k  c #552829",
"l  c #5C3726",
"z  c #4C2238",
"x  c #4F2F3C",
"c  c #593634",
"v  c #632C28",
"b  c #6F3C21",
"n  c #663828",
"m  c #763725",
"M  c #713E21",
"N  c #793C24",
"B  c #692C34",
"V  c #693835",
"C  c #57501C",
"Z  c #67441D",
"A  c #79421D",
"S  c #6A4529",
"D  c #754123",
"F  c #7A4525",
"G  c #7D4927",
"H  c #764628",
"J  c #7E4A2A",
"K  c #665A21",
"L  c #7B5628",
"P  c #6C4336",
"I  c #794A36",
"U  c #7B5637",
"Y  c #776529",
"T  c #706F2B",
"R  c #130041",
"E  c #392240",
"W  c #222660",
"Q  c #4B2B42",
"!  c #443249",
"~  c #553945",
"^  c #492756",
"/  c #624448",
"(  c #785444",
")  c #71514E",
"_  c #545178",
"`  c #645F6A",
"'  c #6E5875",
"]  c #8E2C37",
"[  c #B23B3B",
"{  c #844A1C",
"}  c #BA7012",
"|  c #824A24",
" . c #88462D",
".. c #824C2B",
"X. c #86512E",
"o. c #89532E",
"O. c #825B2D",
"+. c #945B2E",
"@. c #8B4A33",
"#. c #974539",
"$. c #865332",
"%. c #8B5531",
"&. c #8E5934",
"*. c #885C3B",
"=. c #965635",
"-. c #915B35",
";. c #935E39",
":. c #AC5732",
">. c #8B6738",
",. c #9B6234",
"<. c #906B31",
"1. c #96613A",
"2. c #946639",
"3. c #9B663E",
"4. c #9D683F",
"5. c #B77827",
"6. c #A36937",
"7. c #AD7530",
"8. c #CD4B36",
"9. c #F04E34",
"0. c #F95534",
"q. c #C66D2E",
"w. c #FF6835",
"e. c #911D44",
"r. c #973842",
"t. c #865B45",
"y. c #805650",
"u. c #A44245",
"i. c #8C6947",
"p. c #976945",
"a. c #9E6941",
"s. c #857648",
"d. c #987847",
"f. c #916E56",
"g. c #A36D43",
"h. c #A16F49",
"j. c #A3724D",
"k. c #A9744B",
"l. c #A47552",
"z. c #A87A56",
"x. c #AA7D57",
"c. c #AD7558",
"v. c #8D726A",
"b. c #D64444",
"n. c #D9584A",
"m. c #F54D42",
"M. c #EC5546",
"N. c #C66458",
"B. c #FB6946",
"V. c #EF7053",
"C. c #7A8C30",
"Z. c #888B37",
"A. c #968436",
"S. c #839636",
"D. c #B18B38",
"F. c #B88B39",
"G. c #88A73B",
"H. c #D79317",
"J. c #E89210",
"K. c #F7AC0F",
"L. c #D1972F",
"P. c #CE9333",
"I. c #D3AB39",
"U. c #F8AA2A",
"Y. c #FFB32C",
"T. c #FCBB29",
"R. c #EAB130",
"E. c #FFCF19",
"W. c #FFC825",
"Q. c #FEC22C",
"!. c #FFCC2B",
"~. c #FFD82A",
"^. c #E4C53B",
"/. c #F8CD3A",
"(. c #FDD739",
"). c #FFE425",
"_. c #FFFA2B",
"`. c #FFE93C",
"'. c #FFF635",
"]. c #998753",
"[. c #A68647",
"{. c #AC8B44",
"}. c #B1914D",
"|. c #B69949",
" X c #A7835A",
".X c #B2855C",
"XX c #B9A64C",
"oX c #998F6C",
"OX c #B48764",
"+X c #AD9676",
"@X c #BE9778",
"#X c #CAA746",
"$X c #D9B745",
"%X c #D3B35E",
"&X c #C09A7C",
"*X c #CDB878",
"=X c #8DD544",
"-X c #92EB4A",
";X c #96F04C",
":X c #D7C847",
">X c #DCCC52",
",X c #E7C747",
"<X c #F4D647",
"1X c #FDD544",
"2X c #FDDA46",
"3X c #FCDC4A",
"4X c #FFE346",
"5X c #FFEC47",
"6X c #FEE34B",
"7X c #FFEB4A",
"8X c #FFF547",
"9X c #FFFE44",
"0X c #FEF54B",
"qX c #FFFE4B",
"wX c #FDE851",
"eX c #FFFA56",
"rX c #DDD862",
"tX c #EAD462",
"yX c #FFEB68",
"uX c #FDF171",
"iX c #0B338D",
"pX c #2559AC",
"aX c #536A89",
"sX c #73688C",
"dX c #5C58A0",
"fX c #4B76AC",
"gX c #004ED9",
"hX c #236FD1",
"jX c #0871EB",
"kX c #817CB3",
"lX c #71808A",
"zX c #088FFF",
"xX c #1896FF",
"cX c #219CFE",
"vX c #1CACFF",
"bX c #9A91B0",
"nX c #AA94A7",
"mX c #B1A1A1",
"MX c #C09C80",
"NX c #C1B584",
"BX c #DDCC97",
"VX c #E5DB8F",
"CX c #FFFF9F",
"ZX c #FFEFA4",
"AX c #FFFFBD",
"SX c #B8B4DC",
"DX c #C3C4DE",
"FX c #FFFFCC",
"GX c #D2D4EE",
"HX c #DCEBFF",
"JX c #E3F2FF",
/* pixels */
"a.3.1.3.4.4.4.4.4.4.4.4.4.4.4.4.4.4.4.4.4.4.4.4.4.4.4.4.4.4.4.4.3.3.4.3.3.4.4.4.3.4.4.4.1.a.a.3.4.1.",
"3.a.g.3.1.3.4.a.4.4.4.4.4.4.4.a.3.1.1.1.4.a.a.3.3.4.4.3.3.4.4.4.3.3.4.3.3.4.4.4.3.a.3.&.&.z.OXj.4.3.",
"4.3.3. Xl.3.4.3.3.a.4.3.3.4.a.a.1.h.z.j.a.a.4.3.3.4.a.3.3.a.3.1.4.a.4.4.4.4.a.3.4.a.a.F o.k.z.a.1.a.",
"a.&.-.OXz.1.a.3.3.4.4.3.3.a.1.3.k.@XMXOXa.-.1.a.4.a.a.3.a.g.g.a.3.4.a.4.4.3.3.3.3.4.g.$.p ..1.1.3.a.",
"a.$.p f J 1.g.3.3.3.3.3.3.4.;.J ..i.p.1.&.o.1.4.4.;.-.3.;...x.@Xz.1.1.3.3.1.1.3.3.3.3.a.&.%.3.4.1.1.",
"3.1.J D X.&.&.1.1.1.1.1.1.1.3.%.f u u | &.1.1.3.6.-.-.}.t.h P g.a.-.;.1.1.1.1.1.1.1.1.1.3.-.1.1.a.a.",
";.1.4.4.1.J $.1.1.-.;.;.;.1.;.3.4.1.-.&.1.6.-.m b I ( ( i.>Xh 7 +.&.1.1.1.-.-.1.1.;.;.-.3.g.1.;.l.1.",
"-.-.-.-.;.-.-.-.-.h.3.-.-.-.-.-.-.;.1.-.;.m H ].NXrX^.#X<X8X[.) I ,.;.-.-.j.j.&.-.;.-.-.1.g.1.-.F ..",
"-.-.&.-.-.-.-.-.X.*.1.-.-.-.-.&.-.-.-.-.v i.VXAXFXyX`.5X4X2XqX|.z %.1.&.| l.OX-.&.-.-.-.&.%.-.&.%.-.",
"&.&.&.&.&.&.&.-.$.D %.&.%.&.&.&.&.&.-.v  XAXFXZXwX(.2X2X2X2X1X,XXXV &.-.F D -.-.&.&.&.&.o.o.&.&.-.&.",
"%.&.X.s D o.%.o.&.-.%.-.g.&.%.%.%.-.v p.CXZXyX8X'.8X8X8X8X4X4X9XqX#XV +.,...X.X.X.&.%.%.;.1.%.&.%.%.",
"%.&.o.*.p.&.o.%.%.%.o.-.g.&.%.%.%...P <X7X`./.{.[.{.[.k.{.,X<X#X}.}.Q x P %.&.%.%.%.o.o..Xl...o.%.%.",
"%.X.o.OX&Xz.o.&.&.%.&.....&.&.%.&.V }.qX9X#X! s.A.>.#X|.d.~ ! i.<.A.}.z Q I +.&.%.&.%.%.%.F X.%.%.%.",
"-.o.D &.x.l.&...%.&.%.%.%.%.%.X.,.t.#X:XXXE / qX[.! i.qXqXd.p.D.BXsX<.&.V J X.&.%.%.&.%.D J &.&.%.%.",
";.o.o.F &.;.X.G X.&.&.%.o.%.%.%.,.I ! ~ ~ ) [.O.SXSX# {.8Xd.<Xk bXsX* >.V -.%.%.@.&.@. .%.-.&.&.%.&.",
"&.%.-.&.X.%.&.&.&.&.&.o.&.&.&.&.o.P XX<X5XqX#X& ' sX$ {.<Xd.9Xs.$ R d.t.V +.%.>.<.G.Z.Z.<.%.%.X.X.&.",
"o.&.%.X.o.%.%.o... .F l.x.o.X...F I 3X8X2X5X<X/ # $ ^ $Xi.s.XXf.% Q }.x b | F O.Z.S.S.Z.Y D F F D M ",
"F J F D D F L <.D L G a.$.s F D f V ,X4X2X1X8X#X/ x T s./ N.M.n.f.XX:XU v F F M N m m m N F F F D M ",
"F F F D M Y S.G.S.S.L s i D J F A n $X5X2X2X2X9X:Xc..Xc.V.w.0.w.B..XrX|.k G F F F F D f p f F F F J ",
"F F F F N L Y L O.L F M F ..F F G k |.qX1X2X2XqXI.e.M.B.w.w.w.w.w.B.M.y.l | D D G D f $.;.$.F D F F ",
"F F D F G ..N N N D F F ..b a F F l.y.<X8X3X6X1XQ.F.] ] [ 8.9.0.0.0.8.B D D F F F X.l.@X&X.X;.F F D ",
"F F F F M b F F F D f f F D b F ..6.k P 2X`./.Y.Y.!.R.7.=.@.#.:.q.=.E n | F F F F -.j.x.z.3.1.o.D F ",
"D F F F 6 - D F M F l.l.G D J F F s f k V L.W.T.Y.Y.T.!.Q.T.!.R.{.t.M A F F F F D s u s D o.X.F D F ",
"D D D F p a D D f &.OX.XJ s D D D F b A v z i.H.K.W.T.Q.~.K.7.$.) I A D b D D M D D D f f F D D D D ",
"D b M D D F D M D &...f p D M M D D b M { = dXDXx.5.H.J.} mX_ 2 | y M M 9 M D M D D D D D M M M M M ",
"M M D D M M M M b M y y f : t F f d r : ; x v.GXJXGXbXW iXHXnX= f M D M M M M D M M M M M M s b M s ",
"b b 6 9 M M p s s s s A i f.y.; ; c ) v.+XVX(.} nXHXkXjXvX_ {.H t M s M M M p a M M M M M b M M b M ",
"s s - < s s p s s s M 9 n eX*X/ |.tXyXuXeX`.4X~.H.7.5._ gX,._.|.g f p s s s p a s s s s s s p s s s ",
"p s p p s p s s p b a ; >.7X,XwX<X>X>X/.2X<X4X6X4X~.E.) gXoX'.wXP 7 s p s f s s s p p s s s a p s s ",
"s s s s s s s s s s s ; 4.0X<XD. X*XtX2X4X%X$X5X2X6X~.` zXfXT.qX{.; f s a 9 s s s p p f s s s s s s ",
"s s s s s f 6 9 f s f : 2.qX{.' VX3X(.2X(.uX+X^.4X4XW.aXzXhX#X'.,Xk u s p a s s s s s p s s s p p s ",
"s s t t t p y a s s s : 2.<X}.uXyX2X1X2X1XeXNXF.5X4XQ.aXxXjXoX'.6XI 7 s s s p s s M 9 X 9 f s p p s ",
"p H Y Y Y L t f s s p 7 U 3XF.I./.3X2X2X2X0X*X|.5X7XT.pXxXxXlX~.0X>.: f s s s s s f a 6 a f s s s f ",
"p p C.-X-X=XT t s s s u l 7X#XV R.<X4X6X3X1XP.$X4X5XR.pXcXxXfXQ.0XU k s p f f s s s f f f f f s p 9 ",
"s p Z T C.C.Y s i a s d g #X0XF.5.P.R.T.Y.U.R.6X2X5XR.pXcXxXfX!.3Xc l w s 9 < s s a a s s 9 6 f p 9 ",
"s p t > > > t p a a s a ; *.qX4XI.P.L.U.T./.4X3X2X4XW._ zXxXsX_.|.  < 9 f 9 8 s s a p s a 9 9 s p s ",
"s s a i y s i i f s a y y g $XqX4X7X4X2X3X3X2X2X2X2X8XP.gXjXI.qXc X 6 a s s s y s s y i a s s a a s ",
"q i a i a s s 8 5 a a s s - c eX5X2X2X2X2X2X2X2X2X2X6X`.f.].'.i.; s p s a a a i a a y i s s a y i y ",
"q i a a 9 8 i X X i a i a y . i.0X8X3X3X3X3X3X3X3X6X3X6X'.).>.O y q q a q q a a i y a s 8 9 s y y i ",
"i i i s X   8 9 q i q i i q q O I ,X`.`.2X2X2X2X1X(.(.!.L.#.g 3 i y i y i y i i q q i i 9 8 w S n y ",
"w q 9 y 8 < q a i q 8 q w w i 9 O k 6.L.R.Q.Q.Q.T.U.L.6.[ m.u.4 9 q y q : 7 7 9 q w q w i 2 w S S i ",
"w 8 l n i a q q q q w q q q i q q 2 & r.8.:.:.:.=.* z b.M.u.k w q w 9 Z C K T C : q w w w < < 8 8 5 ",
"8 e P S q 8 w q 8 q q q q w - 5 w q 1 v m.0.9.9.m.B @ V k @ 3 8 q q 9 9 C.-X;X=XT 6 9 w 5 o - X , 5 ",
"8 q S i < < w 0 0 q q q q q , 8 q q q + j n.B.n.r.j 3 1 3 q 0 8 q q 8 8 e T T C.K 5 8 w , < q 8 0 w ",
"0 9 2 - X 5 q 0 0 0 0 8 5 0 q 0 0 w q q 1 @ k j 4 3 8 8 0 0 0 0 5 0 5 0 6 - - - 6 q q 0 q q 8 0 q 0 ",
"0 1 o o 1 0 0 0 8 8 0 8 8 0 8 0 5 X < 0 q 1 . + 9 8 8 0 8 8 0 8 5 0 0 0 8 0 0 8 0 8 5 0 0 0 5 5 0 8 ",
"8 5 1 5 0 0 5 5 8 8 8 0 8 8 8 q ,   X q 8 8 q q 8 8 8 8 8 8 8 0 5 5 0 0 5 o 5 0 8 8 5 0 0 8 8 0 0 8 ",
"5 8 0 0 8 0 X X 0 8 5 8 5 5 8 5 0 < 5 5 5 0 , o 0 8 5 5 8 5 5 0 o o 0 8 5 , 5 8 5 8 5 5 5 8 8 5 5 8 ",
"5 5 5 < 5 5 , , 5 5 5 5 5 5 5 5 o 5 0 5 5 0 , o 5 5 5 5 5 5 5 5 5 5 5 5 5 5 5 5 5 0 ,   X 0 5 5 5 5 ",
"5 5 5 1 5 5 5 5 5 5 5 5 5 5 5 5 o , 5 5 5 5 5 0 5 5 5 5 5 5 5 5 5 5 5 5 5 5 5 5 5 5 < . + 5 5 5 5 5 "
};
