/* XPM */
static char *a394b3e0404c421bd8360cb7493ddb03U02Jg02xvkvejILK[] = {
/* columns rows colors chars-per-pixel */
"50 50 227 2 ",
"   c #160101",
".  c #1B0100",
"X  c #121316",
"o  c #2A1306",
"O  c #3C1706",
"+  c #3D1905",
"@  c #331608",
"#  c #361A0A",
"$  c #3B1D0B",
"%  c #2C191D",
"&  c #361D15",
"*  c #3E220C",
"=  c #3B2316",
"-  c #3D221A",
";  c #421E0C",
":  c #49190A",
">  c #4E1D10",
",  c #591C12",
"<  c #44240E",
"1  c #4A250D",
"2  c #47280F",
"3  c #4B290F",
"4  c #55260D",
"5  c #542A0F",
"6  c #432315",
"7  c #4B2412",
"8  c #4C2C12",
"9  c #44251A",
"0  c #4A271A",
"q  c #452919",
"w  c #4C2A1B",
"e  c #532512",
"r  c #5A2214",
"t  c #532D14",
"y  c #5A2D15",
"u  c #542D1B",
"i  c #5A2F19",
"p  c #4A3D16",
"a  c #553114",
"s  c #5B3316",
"d  c #5D321A",
"f  c #59371B",
"g  c #64310D",
"h  c #652917",
"j  c #623317",
"k  c #6B3716",
"l  c #63351A",
"z  c #6A341B",
"x  c #66381A",
"c  c #6C3A1D",
"v  c #753B1D",
"b  c #723D1D",
"n  c #4B2C23",
"m  c #4F3224",
"M  c #533026",
"N  c #5D3523",
"B  c #5B3C27",
"V  c #633723",
"C  c #653A25",
"Z  c #6C3C22",
"A  c #663F2C",
"S  c #723E21",
"D  c #763A28",
"F  c #5C491D",
"G  c #53531B",
"H  c #66421D",
"J  c #76401E",
"K  c #7D431D",
"L  c #684628",
"P  c #744223",
"I  c #7B4525",
"U  c #7E4826",
"Y  c #74452D",
"T  c #77482E",
"R  c #7D4A2B",
"E  c #6B5C23",
"W  c #775B27",
"Q  c #6D4A35",
"!  c #754531",
"~  c #7C4C31",
"^  c #686424",
"/  c #736A27",
"(  c #6A7429",
")  c #757432",
"_  c #86441A",
"`  c #8B451A",
"'  c #8B4818",
"]  c #944B17",
"[  c #9B4E1B",
"{  c #9F531E",
"}  c #AE4D0E",
"|  c #A8561E",
" . c #B35C1C",
".. c #BA5B1B",
"X. c #BE611E",
"o. c #834721",
"O. c #824924",
"+. c #8C4D23",
"@. c #844E2C",
"#. c #894B2D",
"$. c #904F21",
"%. c #86512E",
"&. c #89522E",
"*. c #995524",
"=. c #814F30",
"-. c #855231",
";. c #8B5531",
":. c #8E5934",
">. c #8C5C3C",
",. c #915B36",
"<. c #9B5F36",
"1. c #935E39",
"2. c #A25A25",
"3. c #AC5D22",
"4. c #896A32",
"5. c #8B6B34",
"6. c #976037",
"7. c #9A6036",
"8. c #96613A",
"9. c #9B663E",
"0. c #9D683F",
"q. c #B56224",
"w. c #BB6323",
"e. c #A76838",
"r. c #B7743A",
"t. c #C35E1A",
"y. c #C0621E",
"u. c #CA641B",
"i. c #CE691D",
"p. c #DB6C18",
"a. c #DE741D",
"s. c #E7761B",
"d. c #F87718",
"f. c #F57D1D",
"g. c #FA7E1C",
"h. c #C16924",
"j. c #C96D25",
"k. c #D56C23",
"l. c #C7722A",
"z. c #D47222",
"x. c #DA782B",
"c. c #C77739",
"v. c #D37D3C",
"b. c #E17526",
"n. c #EC7E23",
"m. c #F67C27",
"M. c #E46E35",
"N. c #946444",
"B. c #9A6741",
"V. c #9D6840",
"C. c #9E6B45",
"Z. c #9C6C4A",
"A. c #A16B42",
"S. c #A26D44",
"D. c #AA6C42",
"F. c #A16F49",
"G. c #A3724D",
"H. c #A9744B",
"J. c #B27345",
"K. c #A67651",
"L. c #A87651",
"P. c #A97A56",
"I. c #AA7D59",
"U. c #B57F52",
"Y. c #BB7E53",
"T. c #C27E4E",
"R. c #EB7F45",
"E. c #77842E",
"W. c #748532",
"Q. c #7A9A38",
"!. c #77A238",
"~. c #77BF40",
"^. c #7CC541",
"/. c #819937",
"(. c #B59638",
"). c #B6A43C",
"_. c #FF830F",
"`. c #FF8017",
"'. c #FB831D",
"]. c #FE8A1D",
"[. c #FF931E",
"{. c #FF9C1E",
"}. c #FFA61F",
"|. c #CF8B32",
" X c #D3853B",
".X c #E58426",
"XX c #ED8124",
"oX c #EC832B",
"OX c #F38423",
"+X c #FA8522",
"@X c #F58820",
"#X c #FB8A22",
"$X c #F4842D",
"%X c #FF8529",
"&X c #F6892D",
"*X c #FD8C2A",
"=X c #FF9323",
"-X c #FE932D",
";X c #FF9B29",
":X c #F68837",
">X c #E5913E",
",X c #FB9335",
"<X c #F99A37",
"1X c #FD953D",
"2X c #FD9A3E",
"3X c #FFA026",
"4X c #FFA13F",
"5X c #FFAC3C",
"6X c #AC805E",
"7X c #B1825E",
"8X c #B28461",
"9X c #B3896A",
"0X c #BD9676",
"qX c #CA8350",
"wX c #F88C43",
"eX c #ED9941",
"rX c #F89A41",
"tX c #FC9D42",
"yX c #D6B641",
"uX c #FEA342",
"iX c #FFAB44",
"pX c #C09A7C",
"aX c #8DD544",
"sX c #BBC141",
"dX c #93EA4A",
"fX c #94EC4A",
"gX c #C09C80",
/* pixels */
"V.9.8.9.0.0.0.0.0.0.0.0.0.0.0.0.0.0.0.0.0.0.0.0.0.0.0.0.0.0.0.0.9.9.0.9.9.0.0.0.9.0.0.0.8.V.V.9.0.8.",
"9.V.A.9.8.9.0.V.0.0.0.0.0.0.0.V.9.8.6.8.0.V.V.9.9.0.0.9.9.0.0.0.9.9.0.9.9.0.0.0.9.V.9.:.:.P.9XG.0.9.",
"0.9.9.6XK.9.0.9.9.V.0.9.9.0.V.V.8.F.P.G.V.0.0.9.9.0.V.9.9.V.9.8.0.V.0.0.0.0.V.9.0.V.V.I &.H.P.Z.8.V.",
"V.:.,.8XP.8.V.9.9.0.0.9.9.V.8.9.L.0XgX8XC.,.8.V.0.V.V.9.V.S.S.C.9.0.V.0.0.9.9.9.9.0.S.-.z @.6.8.9.V.",
"V.-.c b R 8.A.9.9.9.9.9.9.0.1.R @.N.Z.8.:.&.8.0.0.1.,.9.:.@.I.0XP.8.8.9.9.8.8.9.9.9.9.V.:.;.9.0.8.8.",
"9.8.R P %.:.:.8.8.8.8.8.8.8.9.;.b k k O.:.8.8.8.8.:.1.U.S.P P N.C.,.1.8.8.8.8.8.8.8.8.8.9.,.8.8.C.B.",
"1.8.0.0.8.R -.8.8.,.1.1.1.8.1.9.0.8.,.:.8.8.1.1.1.1.8.S.0.9.@.I &.:.8.8.8.,.,.8.8.1.1.,.9.S.8.1.K.8.",
",.,.,.,.1.,.,.,.,.F.9.,.,.,.,.,.,.1.8.:.,.,.,.:.F.9XB.&.:.1.8.8.,.1.1.,.,.G.G.:.,.1.,.,.8.S.8.,.I @.",
",.,.:.,.,.,.,.,.%.>.>.~ ~ ~ ~ -.:.,.,.,.,.,.;.@.B.7XB.;.,.,.:.:.,.,.,.:.O.K.8X,.:.,.,.,.:.;.,.:.;.,.",
":.:.:.:.:.:.:.,.;.C %.r.r.r.e.6.-.T ~ =.;.,.:.P l c R :.,.:.:.:.:.:.:.,.I P ,.,.:.:.:.:.&.&.:.:.,.:.",
";.:.%.c P &.;.;.~ <.eXiXiXiXiXuX>X Xr.,.=.T ~ R D P ;.:.-.-.-.;.:.:.;.;.:.@.&.%.%.:.;.;.1.8.&.:.;.;.",
";.:.&.>.Z.:.&.T :.uXiXtXuXuXuXuXiXiXiXuX>Xc.e.5.Q.~.) D T ,.;.T T -.;.;.;.:.:.;.;.;.&.&.7XK.@.&.;.;.",
";.%.&.8XpXP.@.-.rXiXtXtXuXuXtXtXtXtXtXuXuXiXuXrXyXsX(.c.c.>XeX Xe.=.T -.:.#.#.;.;.:.;.;.-.P %.;.;.;.",
",.&.P :.I.L.! l.5XtXtXtXtXtXtXtXtXtXtXtX2X2X2XtX1X1XtXiXuX2X4XuXuX>Xr.5.W.W 4.:.;.;.:.;.P R :.:.;.;.",
"1.&.&.I ;.:.;.@X[.#X#X#X#X#X*X<XtXtXtX2X2X2X2X2X2XtXtX2X2X2X2X1X2XuX4X<X).Q./.4.;.;.;.:.,.,.:.:.;.:.",
":.;.,.:.%.) (.].#X#X'.#X'.'.'.'.*X<XtXtXtXtXtXtXtX1X2XtX2X1X1X1X1X1X1X1XuX XY -.:.:.:.:.;.;.:.%.%.:.",
"&.;.;.@.5.Q.|.]..X.X].#X#X#X#X#X'.'.#X-X,X<X,X,X*X#X#X,XrX1X1X1X1X1X2XrX1X=Xw.A R @.@.R I I R I P S ",
"I R U S P L a.3X2.q.[.@X#X#X#X+X#X+X'.'.'.'.'.'.'.'.'.'.*XrX2X1X1X1X2X*X'.`.].| M Z P S P I I I P S ",
"I I I I Z I '.;XR *.=X#X#X#X#X+XOXOXOXOX+X'.'.+X+X+X+X'.'.#X2X2X,X1X,Xg.'.+X].].w.Z N +.S c I I I R ",
"U P C C M *.=XoXP I #X#X+X+X+X'.OXoX#X*XOXOXOX+X'.'.'.'.'.'.+X2XrXrX*Xg.'.'.g.].].s.P c.v.Q I I I I ",
"P +.3.*.I n.;Xl.Z Z z.[.+X+X+X].OXoX.Xj.+X*XOXXXOX'.'.'.'.+Xg.+X,X1X+X'.'.'.'.'.'.].g.$XtXP.>.U I P ",
"V q.}.=X#X[.=X2.V n 3.=X+X+X+X].OX&X*.n +.j.#X#Xn.XX'.'.'.'.'.g.'.+X'.'.'.+Xg.g.g.d.`.*X,X:Xe.@.P I ",
"P P z.[.[.[.j.C P 3.n.#X+X'.'.].#Xx.S Z C N $.OX#Xn.XX'.'.'.'.'.g.g.'.'.'.g.+X*X*X#X:X1X1Xn.c A I I ",
"P Z Z *.2.+.Z M 3.{.#X+X].].].].OXx.P x I P N P z.=XOXf.'.'.'.g.g.g.'.g.f.g.*XwXR.:X,X2XtXx.] o.C P ",
"P b Z V N V S C +.].].n.+X#X].OXoXoXo.l I S P C N  .#X+Xg.'.g.g.g.g.g.g.'.g.`.m.M.m.s.q.$X1X;Xs.V Z ",
"S S P P S S S S u z.[.n.K K c +.&XoXb 9 x Z Z P l 6 2.OX'.g.g.g.g.g.g.g.`.+.| ].`.'.p.g p.#XwX;XX.u ",
"Z Z t y S S c c u { [.].K % 9 x $X&Xh.K w w l l x x - { ].g.g.'.].].g.].y.n w  .].g.g.'.d.d.%X$X[ d ",
"c c ; 7 c c c c d l g.[.i.9 d w q.-X-X$Xx.I 0 i d d - ` ].g.'.'.| 3.%X%Xq.d d 0 u.].'.g.g.g.`.} : Z ",
"c c c c c c c c c - X.[.].c 9 i 7 _ b.*X;Xj.9 i l d 9 [ ].g.]. .% - w.%Xb.b x l u | '.'._.d.d.g.2.u ",
"c c c c c c c c b w v ].[...& w 6   t w.2.c d l d d 9 y.].g.g.c 9 9 c n.%X[ 0 b x u _ y.s.+X` J.Y.4 ",
"c c c c c b e y b c 9 u.[.'.i.] 0 0 u 6 6 u y e l d 9 i.].g.g.v & e 0 w.*Xk.d 0 c b d u y qX8.>.Y.4 ",
"c c c x c c l l c b u v ].].].[.s.x u i d l t 7 l d 0 l f.'.`.` - d 0 b m.%Xb.] d Z y O ; D.Y.e.0.y ",
"c c c c c z z z z c c d _ a.].'.f.K 0 l l d j l d d d - _ '.]...9 l j 6 ` %X%X*X| u z e e 7.T.+.J b ",
"c c c c c W / W W c z b u l ' v u d l d r , d l l d d d - t.].d.y w B d 0 v k.m.k.d x J y e.r.4 j s ",
"c c c c h E aXdXdX/.c z c x u u i i l e p W.!.L > i d s 9 v g.].' X m y d & $ K c t l b j ,.Z l z y ",
"c c c c z z / E.Q.E.H h l c c c l d i e ( ^.Q.F > i s y d - u.].d.] # & x e 6 w u i l c l y t c c c ",
"c c c l l z , , h h l l l c c l l c l l d a 7 y d d d d d q l d.].'.p.k q d d e u l l l z l c l l c ",
"s l x l l c c t 8 l l x c y < l x l x c j y l d y N B t y d = y p.`.[.d.0 0 y y l c l l c c l j l l ",
"s l l x y t l # # l x l x y t l l l y y c l < l s f f 1 y d s = 0 [ u.t.y 0 l l l l l c t y c j j l ",
"l l l c @ . y y s l s l l s s l l l s s l s t l t ; + 5 x l l l d q 0 0 l x j l s s l l y t s L C j ",
"d s y j t 1 s x l s y s d d l y s l l l d s l l s t t s s l d d y s d s > r r y s l s d l y s L L l ",
"s y N C l x s s s s s s s s l s s s s s s y s s s s l s s s s s s s y H G ^ / F > s s d s 1 1 t t 8 ",
"t f Q L s t s s y s s s s s ; 8 d s s a s s l s t $ s s s s s t s s y y Q.fXfXaX^ e y d 8 $ ; + < 8 ",
"t s L l 1 1 s s s s s s s s 2 t s s y t s a 8 a s a a y s s a y s s y t f ( ( E.E 8 y d < 7 s t a s ",
"t y 5 ; + 8 s a a a a t 8 a s a a s s a s 8 o < s s t 8 a a a a 8 a t a e : : : e a s a s s y a s a ",
"a 3 + + 3 a a a t t a t t a t a 8 # 7 a a 8 $ 7 a t a a t t a t 8 a a a t a a t a t 8 a a a 8 8 a t ",
"t 8 3 t a a 8 8 t t t a t t t s 2   # s t t s s t t t t t t t a 8 8 a a 8 $ 8 a t t 8 a a t t a t t ",
"8 t a a t a @ @ a t 8 t 8 8 t 8 a 2 8 8 8 a 2 $ t t 8 8 8 8 8 a $ $ a t 8 2 8 t 8 t 8 8 8 t t 8 8 t ",
"8 8 8 2 8 8 2 2 8 8 8 8 8 8 8 8 $ 8 a 8 8 a 2 $ 8 8 8 8 8 8 8 8 8 8 8 8 8 8 8 8 8 a <   # a 8 8 8 8 ",
"8 8 8 8 8 8 8 8 8 8 8 8 8 8 8 8 $ < 8 8 8 8 8 a 8 8 8 8 8 8 8 8 8 8 8 8 8 8 8 8 8 8 2 o * 8 8 8 8 8 "
};
