/* XPM */
static char *c3fa9223e5bd4524f4f8cce78bdcc5absmb1FnKEG68mB0Ui[] = {
/* columns rows colors chars-per-pixel */
"50 50 214 2 ",
"   c #010000",
".  c #0C0301",
"X  c #130401",
"o  c #1D0200",
"O  c #140A06",
"+  c #1D0C03",
"@  c #1E0F08",
"#  c #1C140A",
"$  c #240E03",
"%  c #2B0C01",
"&  c #360C05",
"*  c #271004",
"=  c #2C1206",
"-  c #2E1A06",
";  c #27140A",
":  c #381506",
">  c #3C1A06",
",  c #341609",
"<  c #351B0B",
"1  c #3B1C0B",
"2  c #3B1C12",
"3  c #2B2D0E",
"4  c #3E220C",
"5  c #3C2010",
"6  c #430F08",
"7  c #491403",
"8  c #431B06",
"9  c #4D150D",
"0  c #431E0D",
"q  c #4A1B0F",
"w  c #521706",
"e  c #571B07",
"r  c #421C10",
"t  c #4C1F10",
"y  c #591C12",
"u  c #45220E",
"i  c #4B240D",
"p  c #46280F",
"a  c #4B290F",
"s  c #50250C",
"d  c #542A0D",
"f  c #462416",
"g  c #4B2311",
"h  c #4C2C11",
"j  c #522512",
"k  c #5C2312",
"l  c #532D13",
"z  c #5A2D15",
"x  c #552E1B",
"c  c #5E2F18",
"v  c #553114",
"b  c #5C3316",
"n  c #5D3419",
"m  c #5E3B1C",
"M  c #672717",
"N  c #642B16",
"B  c #762E14",
"V  c #613317",
"C  c #6B3616",
"Z  c #633519",
"A  c #69361B",
"S  c #65381A",
"D  c #6C3A1D",
"F  c #733214",
"G  c #713D1E",
"H  c #573622",
"J  c #623723",
"K  c #643D23",
"L  c #6F3C20",
"P  c #703620",
"I  c #723E21",
"U  c #7A3B23",
"Y  c #57501C",
"T  c #66421D",
"R  c #72411F",
"E  c #5E4F29",
"W  c #67452B",
"Q  c #6B4629",
"!  c #754123",
"~  c #7A4525",
"^  c #7D4926",
"/  c #72432A",
"(  c #7E4429",
")  c #77482D",
"_  c #7E4A29",
"`  c #6B5C23",
"'  c #745C25",
"]  c #744D36",
"[  c #686424",
"{  c #726927",
"}  c #776D28",
"|  c #6D7027",
" . c #777B2B",
".. c #823F1C",
"X. c #903912",
"o. c #A84C1E",
"O. c #804B27",
"+. c #874529",
"@. c #824D2B",
"#. c #8A4C2D",
"$. c #934B2D",
"%. c #994B2D",
"&. c #86512E",
"*. c #89532E",
"=. c #855B2F",
"-. c #9B4E33",
";. c #865331",
":. c #8B5531",
">. c #8E5934",
",. c #895A3B",
"<. c #935232",
"1. c #915B36",
"2. c #945E39",
"3. c #9D5838",
"4. c #AA5222",
"5. c #A55A37",
"6. c #AC5E3D",
"7. c #B55C39",
"8. c #8D6334",
"9. c #836E31",
"0. c #8B6D34",
"q. c #986137",
"w. c #96613A",
"e. c #9B653E",
"r. c #9D683F",
"t. c #8A7736",
"y. c #A5653E",
"u. c #BE6A3F",
"i. c #C3633C",
"p. c #906141",
"a. c #9B6543",
"s. c #9E6941",
"d. c #9D6C49",
"f. c #9F7253",
"g. c #AD6743",
"h. c #A26C42",
"j. c #A56F46",
"k. c #A16F49",
"l. c #A77046",
"z. c #A97246",
"x. c #A3724D",
"c. c #AA754C",
"v. c #A47552",
"b. c #A87855",
"n. c #A97A56",
"m. c #AD7F5A",
"M. c #B37851",
"N. c #C36D47",
"B. c #CB6A41",
"V. c #D66D43",
"C. c #C4734D",
"Z. c #CA7049",
"A. c #D77248",
"S. c #C77E57",
"D. c #CD7C55",
"F. c #D17E55",
"G. c #EC7C4C",
"H. c #FF7E4C",
"J. c #E77D50",
"K. c #77842E",
"L. c #778C31",
"P. c #7A9833",
"I. c #8B8B38",
"U. c #869838",
"Y. c #899D3A",
"T. c #88A43B",
"R. c #82CC3F",
"E. c #AE805C",
"W. c #B6845D",
"Q. c #B28461",
"!. c #BA8967",
"~. c #BD9676",
"^. c #CA855F",
"/. c #F5804F",
"(. c #EA885C",
"). c #F78459",
"_. c #FC8C5A",
"`. c #E2995E",
"'. c #FF925E",
"]. c #F7BC5E",
"[. c #C78863",
"{. c #D98D64",
"}. c #C3997B",
"|. c #DC9971",
" X c #E48B61",
".X c #ED9669",
"XX c #ED976C",
"oX c #FF9461",
"OX c #FF9B65",
"+X c #F49569",
"@X c #FE9B6B",
"#X c #EC9D72",
"$X c #F69E72",
"%X c #D8A06E",
"&X c #D5A07C",
"*X c #DEA67F",
"=X c #FDA467",
"-X c #E7A67F",
";X c #F5A174",
":X c #FDA476",
">X c #FBA578",
",X c #FFAB7B",
"<X c #FFB17F",
"1X c #8DD544",
"2X c #8FE347",
"3X c #94EC4A",
"4X c #96F04C",
"5X c #C09C80",
"6X c #D9A481",
"7X c #E2AB87",
"8X c #E8B28D",
"9X c #FFB484",
"0X c #FABA8D",
"qX c #FFDDB0",
/* pixels */
"s.e.w.e.r.r.r.r.r.r.r.r.r.r.r.r.r.r.r.r.r.r.r.r.r.r.r.r.r.r.e.s.j.j.s.w.w.j.h.e.e.r.r.r.w.s.s.e.r.w.",
"e.s.h.e.w.e.r.s.r.r.r.r.r.r.r.s.e.w.q.w.r.s.s.e.e.e.w.e.e.h.z.l.1.! S z z R r.h.e.s.e.>.>.b.!.x.r.e.",
"r.e.e.E.v.e.r.e.e.s.r.e.e.r.s.s.w.k.b.x.s.r.e.s.e.w.j.l.l.e.&.D j u j z l 8 ! z.r.s.s.~ *.c.b.d.w.s.",
"s.>.1.Q.b.w.s.e.e.r.r.e.e.s.w.e.c.~.5XQ.s.>.w.r.j.8X8Xa.S z s s z z b z l = K z.e.r.h.;.A @.q.w.e.s.",
"s.;.A G _ w.h.e.e.e.e.e.e.r.2._ @.p.d.w.>.>.1.z s &X6X8 8 i j l j i u r 2 x w.h.e.e.e.s.>.:.e.r.w.w.",
"e.w._ ! &.>.>.w.w.w.w.w.w.w.e.:.G C C O.>.e.>.V ! 7X*Xw.s.~ V / ) ! / ) ;.r.y.w.w.w.w.w.e.1.w.w.s.a.",
"2.w.r.r.w._ ;.w.w.1.2.2.2.w.2.e.r.w.1.>.w.w.w.1.W.0Xh.h.h.r.1.*.w.w.h.h.h.2.>.w.w.2.2.1.e.l.w.2.v.w.",
"1.1.1.1.2.1.1.1.1.k.e.1.1.1.1.>.1.2.w.>.1.1.2.O.[.7X>.*.>.2.w.w.1.2.2.1.1.x.x.>.1.2.1.1.w.h.w.1.~ @.",
"1.1.>.1.1.1.1.1.&.,.w.1.1.1.1.>.1.1.1.1.1.1.:.^ -X*X>.:.1.1.1.>.1.1.1.>.^ v.Q.1.>.1.1.1.>.:.1.>.:.1.",
">.>.>.>.>.>.>.1.;.! :.>.:.>.>.>.>.:.>.:.1.y.&.h.qXM.V 1.>.>.>.>.>.>.>.1.~ ! 1.1.>.>.>.>.*.*.>.>.1.>.",
":.>.&.D ! *.:.*.>.1.:.1.j.>.:.>.:.:.:.1.! b g H }.%X_ :.:.>.>.>.:.>.:.:.>.@.*.&.&.>.:.:.2.w.:.>.:.:.",
":.>.*.,.d.>.*.:.:.:.*.1.h.>.:.:.:.*.:.2.,.X . $ o E t.:.:.:.:.*.:.>.:.:.:.>.>.:.:.:.*.*.E.v.@.*.:.:.",
":.&.*.Q.}.n.*.>.>.:.>.@.@.>.>.:.:.>.>.R |.6X; $ *   Q q.:.:.:.:.:.>.:.:.>.#.#.:.:.>.:.:.;.! &.:.:.:.",
"1.*.! >.m.v.:.@.:.>.:.:.:.:.:.&.2.M.&.2.[.0X!.X + X x q.:.:.>.>.:.&.:.0.I.=.9.>.:.:.>.:.! _ >.>.:.:.",
"2.*.*.~ :.1.&.U +.>.>.:.*.:.:.:.>.2.~ [.9XS.{.< $ X < >.>.:.:.>.>.@.0.Y.T.Y.Y.8.:.:.:.>.1.1.>.>.:.>.",
">.:.1.>.&.t.U.0.t.8.:.*.>.>.>.>.:.&.@.^.;X:Xa.X = + - :.2.>.:.*.&.#.:.8.>.>.:.>.>.>.>.>.:.:.>.&.&.>.",
"*.>.:.@.0.Y.T.Y.U.=.( v.m.*.&.@.@.@.^ 1.S.,Xa.  X X 5 1.&.@._ ~ ~ ~ ~ ( ( ( O.@.@.@.@._ ~ ~ _ ~ ! I ",
"~ _ ^ I ! _ ~ ~ U I ~ s.;.D ~ ! ! ~ O.i >.9X{.y.x   x #.~ ~ ~ ~ ! ~ ~ I ! ~ ~ ! ! ! ! ~ ~ ~ ~ ~ ! I ",
"~ ~ ~ ~ ! ~ ~ ~ ~ ~ ^ G S ! _ ~ ! ! ~ A ^.#X{.@XC.< I ~ ~ ~ ! ~ ~ ~ ~ ~ ~ ~ ~ ~ ~ ~ ~ G A G ~ ~ ~ _ ",
"~ ~ ~ ~ ~ ^ ! ! ~ ~ ~ ! ~ O.~ ~ ! ;.L #..X{.#XXXy.! ~ ~ ~ ~ ! ~ ~ ~ ~ ~ ~ ~ ! ! ^ ! G ;.2.;.~ ~ ~ ~ ",
"~ ~ ! ~ ~ O.~ ~ ~ ~ ~ ~ O.L A ~ @.d.k 6.;X#X;X>X<.S ~ ! ~ ^ ~ ~ ~ ~ ~ ~ ~ ! ~ ~ ~ &.v.~.}.E.2.~ ~ ! ",
"~ ~ ~ ~ I L ~ ~ ~ ! G G ~ ! L ~ &.U w 3.>X#X#X,X3.i ~ ! ~ ~ ~ ~ I I ~ ~ ~ ~ ~ ~ ~ 1.x.m.n.e.w.*.! ~ ",
"~ ~ ~ ~ j 0 ! ~ I ~ f.v.^ ! ~ ~ ! N e +.>XXX;X:X:.A ~ ~ ~ ~ ! ! v.d.G ! ~ ~ ~ ~ ! D C D ! *.&.~ ~ ~ ",
"! ! ! ~ A A ! ! G >.!.W._ D ! ! ! N 7 6.,X$X,Xg.S ~ ! I ! ! G @.m.>.D ! L ! ! I ! ! ! G G ~ ! ! ! ! ",
"! L I ! ~ ~ ! I ! >.@.G A ! I I I k w D.,X:X3.z L L ! I I ! I ~ I V I I z I ! I ! ! ! ! ! I I I I I ",
"I I ! ! I I I I L I V V L I I ! A & <.,X,X6.w ! A z I I I I D I A I ! I I I I ! I I I I I I D L I D ",
"L L l z I I A D D D D I I L I n z U  X9XD.6 1 ~ D L D D I L I I I L D I I I A S I I I I I L I I L I ",
"D D 0 g D D A D D D I D A L b A D.@X,X.XB %   D I I A A D D A A D D A D D D A S D D D D D D A D D D ",
"A D A A D A D D A D A z c Z ..(.<X,X+X%.e .   x ~ A D A A D A A D D D A D D D D D A A D D D A A D D ",
"D D D D D D D D D G j x ! F o.'..X] O X O     5 O.D D A A D D D A A D D A z D D D A A G D D D D D D ",
"D D D D D G j z G S <.F.`.4.X.F @         X   ; ~ D D D D A D G z V G D A S D D D D D A D D D A A D ",
"D D A S D D V S A V (.:X,X=Xu                   Z ! S A D A A D A D D D D D A D D I z > z G D A A D ",
"D D D A D A A M M z 5.@XZ.1.#                 J ! z D D D G D D G G D G D A D D D G S j S G D D G G ",
"D D D D D ' } ' ' A N ~ A C +       X     . -.oXu.D l S G S A G C K Q D A G G D D D G G G G G D A z ",
"D D D D N ` 1X3X2XU.A k S G N.f         3 P.]._._.(.6.b S S A A d m W n D z g D D S S D D z l G A z ",
"A A A A A A { L.P.K.R N b S oXOX( O . 6  .R.L.7.).'.oX5.j D D Z u 8 u z G z l D A S A D S z z D A D ",
"A A A Z Z A y y M M S Z S z Z.=XA.0 j z j q : , A A.oXJ.A b S A b i i S A D A V A A V Z S A D S S A ",
"b Z S Z S D A j h S S A V % I OXB.0 u g g q j g = 2 6.'.#.p V b D A A S S S S Z S S V Z A A S V Z V ",
"b Z Z S z l Z < < Z A l t = z _.'.$.= u j g , g 0 1 $._.B.l b Z S b b S b b S S Z V S A l z A V V Z ",
"Z Z Z A , o x z b S l 0 g , z /.'.i.< 0 g g 1 g = z G./.OX7.u Z Z Z Z V Z V Z Z b b Z Z z l b W K V ",
"n b z V j i b S S n u 0 g 0 0 A.'.B.u 0 g g g g 0 < l U 5.P g Z x b Z b t k k z b Z b n Z z b Q W Z ",
"b v H K S S b b b b g 0 u 0 $ -.OXi.< 0 g 0 u g g 0 < = * , l S b b z T Y [ { Y t b b n b i i l l h ",
"l m ] W b j b b x b g 0 g g X + G.i.= 0 u u g g 0 = u g u 0 j v b b z z P.3X4X1X[ j z n h 1 0 > u h ",
"l b Q S i i b b v b v 1 < V.V.%.G.%.+ 0 u 0 1 u u u u 0 0 g b x b b l l m |  .K.` h x n u g b l v b ",
"l z d 8 > h b v v v b h $ +._.OX'.7.< 1 u 1 + , u u 1 < u v b v h v h v j 9 9 9 j b b v b b x v b v ",
"v a > > a v v v l l v v l < 0 U V.H.z = 0 1 = , 1 1 u h v v x l h v v v l v v l v l h v v v h h v l ",
"l h a h v v h h l l l l v v p - 0 1 = u 0 0 u g p h l v l l l v h h v v h 1 h v l l h v v l l v l l ",
"h l v v l v , , v l h l h h v v h - h h h v p 1 v v l h l h h v 1 1 v l h p h l h l h h h l l h h l ",
"h h h p h h p p h h h h h h h h 1 h v h h v p 1 h h h h h h h h h h h h h h h h h v u X < v h h h h ",
"h h h h h h h h h h h h h h h h 1 p h h h h h v h h h h h h h h h h h h h h h h h h p = 4 h h h h h "
};
