/* XPM */
static char *_a8f7d9f06994455c9beaf29834f22daD1Y1bqmjePskesRl[] = {
/* columns rows colors chars-per-pixel */
"50 50 235 2 ",
"   c #180100",
".  c #1E0D13",
"X  c #220906",
"o  c #2A1306",
"O  c #3C1705",
"+  c #3C1A06",
"@  c #341509",
"#  c #361A0A",
"$  c #3B1D0B",
"%  c #2B1819",
"&  c #361D19",
"*  c #3C1F18",
"=  c #3E220C",
"-  c #3C2115",
";  c #3D201B",
":  c #421F0B",
">  c #4A190A",
",  c #401F17",
"<  c #4E1D10",
"1  c #591C12",
"2  c #44250D",
"3  c #4B250D",
"4  c #47280F",
"5  c #4C290F",
"6  c #53290F",
"7  c #452315",
"8  c #4A2512",
"9  c #4C2C12",
"0  c #43251B",
"q  c #492919",
"w  c #4B2A1A",
"e  c #532512",
"r  c #5A2114",
"t  c #532E13",
"y  c #5B2E15",
"u  c #552D1A",
"i  c #5A2E19",
"p  c #4E301A",
"a  c #553114",
"s  c #5B3316",
"d  c #55331B",
"f  c #5D321A",
"g  c #5E3C1C",
"h  c #67320D",
"j  c #682A17",
"k  c #613317",
"l  c #6C3716",
"z  c #633519",
"x  c #69361B",
"c  c #65381A",
"v  c #6C3A1D",
"b  c #73371C",
"n  c #723D1E",
"m  c #793F1B",
"M  c #4E2D22",
"N  c #542E20",
"B  c #543224",
"V  c #5B3423",
"C  c #5A3A29",
"Z  c #623622",
"A  c #643A24",
"S  c #663826",
"D  c #6D3C22",
"F  c #723E22",
"G  c #7C3B25",
"H  c #5C481D",
"J  c #53531B",
"K  c #60431B",
"L  c #7C431E",
"P  c #5E402B",
"I  c #684528",
"U  c #764223",
"Y  c #7B4525",
"T  c #77452B",
"R  c #77482F",
"E  c #7D4B2B",
"W  c #645722",
"Q  c #694735",
"!  c #7C4C31",
"~  c #676625",
"^  c #726928",
"/  c #6C7A2C",
"(  c #777231",
")  c #843E26",
"_  c #85441B",
"`  c #87491E",
"'  c #8B4A1F",
"]  c #944D1C",
"[  c #9B4D1E",
"{  c #9C521D",
"}  c #A94015",
"|  c #A3541D",
" . c #A85719",
".. c #AB551A",
"X. c #B45B1D",
"o. c #834521",
"O. c #834A26",
"+. c #8A4B22",
"@. c #834E2C",
"#. c #894A2C",
"$. c #924D28",
"%. c #86522E",
"&. c #89522E",
"*. c #865B2E",
"=. c #965322",
"-. c #9C5422",
";. c #975B2D",
":. c #814F31",
">. c #845231",
",. c #8B5531",
"<. c #8E5934",
"1. c #8B5C3B",
"2. c #915B36",
"3. c #935E39",
"4. c #A55922",
"5. c #AC5C23",
"6. c #B55C20",
"7. c #8C6834",
"8. c #976037",
"9. c #9B6236",
"0. c #96613A",
"q. c #9B663E",
"w. c #9D683F",
"e. c #8B7A36",
"r. c #AB6227",
"t. c #BC6421",
"y. c #B66927",
"u. c #AE6A34",
"i. c #B56D38",
"p. c #A6783A",
"a. c #B67238",
"s. c #C35910",
"d. c #C66118",
"f. c #C9641B",
"g. c #D56B1A",
"h. c #DC731C",
"j. c #E96F1A",
"k. c #E8781D",
"l. c #F77716",
"z. c #F57C1B",
"x. c #FA7D1C",
"c. c #C66922",
"v. c #C56A24",
"b. c #D56C20",
"n. c #CC7024",
"m. c #DD7925",
"M. c #C37637",
"N. c #D47A33",
"B. c #E47425",
"V. c #E37925",
"C. c #ED7E24",
"Z. c #E6732E",
"A. c #E37B2A",
"S. c #F47D24",
"D. c #FA7E26",
"F. c #946444",
"G. c #9A6741",
"H. c #9D6840",
"J. c #9E6B45",
"K. c #9C6C4A",
"L. c #926C54",
"P. c #A36C43",
"I. c #A26D44",
"U. c #AA6C42",
"Y. c #A16F49",
"T. c #A3724D",
"R. c #A9734A",
"E. c #BB7B4A",
"W. c #A57653",
"Q. c #A87A56",
"!. c #AA7B57",
"~. c #B57F52",
"^. c #C77F43",
"/. c #EB7F45",
"(. c #7B8E31",
"). c #6E9233",
"_. c #799935",
"`. c #7AA33C",
"'. c #7FCC3E",
"]. c #59B741",
"[. c #77BD40",
"{. c #889839",
"}. c #BA8527",
"|. c #87A13A",
" X c #FF8715",
".X c #F5811F",
"XX c #FB831D",
"oX c #FE8B1D",
"OX c #FF931E",
"+X c #FF981F",
"@X c #FFA21F",
"#X c #CA813D",
"$X c #D8873C",
"%X c #D29C3E",
"&X c #ED8224",
"*X c #E3812B",
"=X c #EB832A",
"-X c #F48523",
";X c #FA8521",
":X c #FB8B23",
">X c #FD8429",
",X c #F78B2B",
"<X c #FD8C2B",
"1X c #FF9322",
"2X c #FF9B27",
"3X c #EB8832",
"4X c #E4893B",
"5X c #FB8D32",
"6X c #F78B38",
"7X c #E6933F",
"8X c #FB9335",
"9X c #FC953C",
"0X c #FA9A38",
"qX c #FD9A3E",
"wX c #FFA730",
"eX c #AC805E",
"rX c #B6825B",
"tX c #BFBC41",
"yX c #B28562",
"uX c #B3896A",
"iX c #BD9676",
"pX c #C7875A",
"aX c #F48942",
"sX c #EA9641",
"dX c #FD9740",
"fX c #FC9D42",
"gX c #FFA441",
"hX c #FFAB44",
"jX c #FFB248",
"kX c #C09A7C",
"lX c #88D443",
"zX c #B9C942",
"xX c #96EC4B",
"cX c #95F04C",
"vX c #C09C80",
/* pixels */
"H.q.0.q.w.w.w.w.w.w.w.w.w.w.w.w.w.w.w.w.w.w.w.w.w.w.w.w.w.w.w.w.q.q.w.q.q.w.w.w.q.w.w.w.0.H.H.q.w.0.",
"q.H.P.q.0.q.w.H.w.w.w.w.w.w.w.H.q.0.8.0.w.H.H.q.q.w.w.q.q.w.w.w.q.q.w.q.q.w.w.w.q.H.q.,.<.Q.uXT.w.q.",
"w.q.q.eXW.q.w.q.q.H.w.q.q.w.H.H.0.Y.Q.T.H.w.w.q.q.w.H.q.q.H.q.0.w.H.w.w.w.w.H.q.w.H.H.Y &.R.Q.K.0.H.",
"H.,.2.yXQ.0.H.q.q.w.w.q.q.H.0.q.R.iXvXyXJ.2.0.H.w.H.H.q.H.I.I.J.q.w.H.w.w.q.q.q.q.w.I.>.x @.8.0.q.H.",
"H.>.v n E 0.P.q.q.q.q.q.q.w.3.E @.F.K.0.,.&.0.w.w.3.2.q.<.@.Q.iXQ.0.0.q.q.0.0.q.q.q.q.H.<.,.q.w.0.0.",
"q.0.E U %.<.<.0.0.0.0.0.0.0.q.,.n l l O.,.0.0.0.0.<.3.~.I.U U F.J.2.3.0.0.0.0.0.0.0.0.0.q.2.0.0.J.G.",
"3.0.w.w.0.E >.0.0.2.3.3.3.0.3.q.w.0.2.<.0.0.3.3.3.3.0.I.w.q.@.Y &.<.0.0.0.2.2.0.0.3.3.2.q.I.0.3.W.0.",
"2.2.2.2.3.2.2.2.2.Y.q.2.2.2.2.2.2.3.0.<.2.2.2.,.Y.uXG.&.<.3.0.0.2.3.3.2.2.T.T.<.2.3.2.2.0.I.0.2.Y @.",
"2.2.<.2.2.2.2.2.%.1.0.2.2.2.2.<.2.2.2.2.2.2.,.@.G.rXG.,.2.2.<.<.2.2.<.:.D L.W.:.,.2.2.2.<.,.2.,.,.2.",
",.<.<.,.<.<.<.2.>.U ,.<.,.<.<.<.,.,.<.,.,.2.<.U z b E <.2.<.,.! ! ! ,.9.;.u.#Xi.>.:.2.<.&.&.<.,.2.<.",
",.<.%.v U &.,.&.,.2.,.2.I.,.,.,.,.,.,.,.>.>.,.#.G U ,.:.R R >.9.a.#XsXgXhXhXhXhXsX,.R ,.3.0.,.,.,.,.",
",.,.&.1.K.<.&.,.,.,.&.2.P.,.,.,.,.%.R E ,.,.T ( `.[.( $.u.#X7XgXhXhXhXgXfXfXfXgXjXsX@.E rXW.@.&.,.,.",
",.%.&.yXkXQ.&.,.,.,.,.@.@.,.,.E R ,.u.$XsX$XM.%XzXtX%X9XhXhXgXfXfXfXfXfXfXgXgXgXfXjXsX! @.U %.,.,.,.",
"2.&.U <.Q.W.,.@.,.,.,.,.,.@.R 2.M.7XgXgXqXqXgXfX9X9XfXgXqXqXfXfXdXqXfXgXfXfXfXfXfXfXwXy.Z E ,.,.,.,.",
"3.&.&.Y ,.2.%.G #.,.,.,.E >.M.qXgXqXqX9XqXqXqXqXfXfXqXqXqXqXqXqXfXfXfX8X:X:X:X:X:X:XOX&X>.<.,.,.,.,.",
",.,.2.<.%.e.{.7.e.7.,.! ! 4XhXqX9X9X9X9X9X9X9XfXqX9XfXfXfXfXfXfXdX8X:XXXoX;XoX;XoX:X:X:X;.! ,.%.%.,.",
"&.,.,.@.7.{.|.{.{.*.Y L.4X1X9XdX9X9X9X9X9XdXdX<X;X;X,X8X8X8X8X<X,XXXXX;X;X;X;X;X1X*X*X1Xr.A E Y U F ",
"Y E E F U E F F G A C N.oXXXXX5X9X9X9X9XdX9X,XXXXXXXXXXXXXXXXXXXXX;X;X;X;X;X;X;X1X4.r.@Xn.Z Y Y U F ",
"Y Y Y Y Y F Y O.V U c.XXXX;XXXXX9X9X9XfX9X;XXX;X;X;X;X;XXXXX;X;X-X-X-X;X;X;X;X:X1Xo.;.2XC.D U Y Y E ",
"Y Y Y Y Y Z N.u.o.z.oXXX.XXXXXx.<XdXdX9X;Xz.XXXXXXXXXX;X;X-X-X:X-X&X;XXX;X;X;X1X&XA Y ,X1X;.C A A U ",
"Y Y U Y A $.9XV.XXoXXXXXXXXXXXx.;XdX5XXXXX;XXXXXXX;X-X&X-X1X-Xv.A.=X;XXX;X;X;XOXt.Q W.4XoX3X0.4.y.O.",
"Y Y Y U o.,XqX<XXXl.x.x.x.XXXXXXXX;XXXXXXXXXXXXX;X&X&X:X:Xt.O.B 5.,X;XXX;X;X;XoX=.Q L.^.OXoX:X1X@X-.",
"Y Y Y B l <X9X9X5X:X<X<X>Xx.x.x.XXx.XXXXXXXXXXXXS.-X:XV.+.V A D I.3XXXXXXXXX;X:Xm.] y A m.OXOXOXv.D ",
"U U Z ] ..A.qXqX8X6X/.aX:Xx.x.x.x.XXXXXXx.XXXXS.;X1Xv.Z V U n R E.*X;XoXoXoX:X;XoX+X=.N D =.r.=.A F ",
"U Z v z.0X9XA.t.z.S.Z.>XXXx.XXx.x.x.x.x.x.x.x.:X:X| V A U U U A -.=X=X.XoXoXXX.XoX.XY D D Z V Z F F ",
"D V b.0X9X:Xd.h l.XX XoX=.-.XXx.x.x.x.x.x.x.XXC.` , D U D D f & L <X*XY n L ` .XOXt.B F F F v D F v ",
"D z ..6X;Xl.x.XXx.x.oX| M N g.oXx.oXoXx.x.x.oX' 0 c z z z w u +.n.<Xm.u w % ] OXoX' V F F D F F D F ",
"D z > s.XXx.x.z.XXoX6.w z z v.>XS.4.X.oXx.x.XXm 0 f i i w ' A.>X<X<X-.w i u k.OXk.u v v v v v v v v ",
"v i X.XXl.l. XoXz.{ w i i o.C.>X-.. & f.oXx.oX_ 0 i f u u V.2X<Xm.+.w i ; ` oXOX| * v v v v c v v v ",
"v y pX9.[ :Xh.X.m u z x w 5.<XA.w X % ` oXx.oX..0 f f i f m 5.5.u 7 u 0 * f.OXx.z u v n v v v v v v ",
"v y pX:.R.E.@ * c m v w v B.<X4.- i 0 _ XXx.oX..0 f f z z w 7 w 7 7 u { h.XXOXX.0 n v x v v v x v v ",
"v e U.P.~.,.8 z n c f | B.>XB.z w z 0 | XXoXj.w u f i i z f f f w v z.OXoXoXx.c f F y O y n v x v v ",
"v x Y 2.E.o.j j j u c.<X>XS.m 7 z f w g.oXx.x 0 z f f f f z z f w ] z.XXoXg.m f n n z e z n v n n n ",
"v n x e a.p.~ ^ W x j.D.c.x w f z w b x.XX} & z z f f z z y y z y d B m _ z f v v v n n n n n v x y ",
"v v v y ) p.'.cXlX/ v b u w f z w % X.XXz./ ).W < i f i f i f i 2 p C 0 i y e v v z z v v y t n x y ",
"x x x v z x ^ (.(.~ d 7 u f f 0 t ..x.l.}.]._.H < i i i f f f i $ + 2 a n y t v x z x v z y y v v v ",
"x x x z z z 1 1 j r u t i f 0 _ l.XXoXj.d w e y f f d f i a f z s 5 6 z x v v k x x z z z x v z z x ",
"s z c z z v x t 9 c f a f - : XXOXXXf.u 7 e i i i C P f s z s k v v v c z z z z z c z z x x z k z z ",
"s z z c y t z # # z x z z 7 k d.d.] - - z y $ a y f f 6 k z z z z s s c a s z z z z c x t y x k k z ",
"z z z x @   i y a z a k z k a w w w a z z z t z t : O 5 z z z z z z z z z z z z s a z z a t f I A k ",
"f s y k t 3 s c z s y s f z z y a z z z f s z z a t t a s f f f i s z s < e r y s z s f z y f I I z ",
"f i V A c c s a s s f s s s z s a s s f f i a f s a z s a s s f a s y K J ~ ^ H < s f f f 5 3 t t 9 ",
"t g Q I a t f a i a a a a f : t f a a a a s z f t $ a f a a a t s a y e (.xXcXlX~ e y z 9 $ : O 2 9 ",
"t a I c 3 3 f a a a a a a a 4 t s a i t a a 9 a a a a i a a a i a a i t g ^ / (.W 9 i f 2 3 s t a f ",
"t y 6 : + 9 a a a a a t 9 a s a a f s a s 9 o 2 f a t t a a a a 9 a t a e > > > e a a a a s i a a a ",
"a 5 + + 5 a a a t t a t t a t a 9 # 8 a a 9 $ 7 a i a a t t a t 9 a a a t a a t a t 9 a a a 9 9 a t ",
"t 9 5 t a a 9 9 t t t a t t t s 4   # s t t s s t t t t t t t a 9 9 a a 9 $ 9 a t t 9 a a t t a t t ",
"9 t a a t a @ @ a t 9 t 9 9 t t a 4 9 9 9 a 4 $ t t t t 9 9 9 a $ $ a t 9 4 9 t 9 t 9 9 9 t t 9 9 t ",
"9 9 9 4 9 9 4 4 9 9 9 9 9 9 9 9 $ 9 a 9 9 a 4 $ 9 9 9 9 9 9 9 9 9 9 9 9 9 9 9 9 9 a 2   # a 9 9 9 9 ",
"9 9 9 9 9 9 9 9 9 9 9 9 9 9 9 9 $ 2 9 9 9 9 9 a 9 9 9 9 9 9 9 9 9 9 9 9 9 9 9 9 9 9 4 o = 9 9 9 9 9 "
};
