/* XPM */
static char *_c325eefc6ca449e81da4508b3e57413xeTJekhScxPYB11a[] = {
/* columns rows colors chars-per-pixel */
"50 50 210 2 ",
"   c #010000",
".  c #0B0100",
"X  c #140401",
"o  c #1B0100",
"O  c #1B0B03",
"+  c #230D04",
"@  c #2B0D02",
"#  c #231005",
"$  c #2C1306",
"%  c #2D160B",
"&  c #341407",
"*  c #3B1402",
"=  c #371C04",
"-  c #3C1A06",
";  c #341609",
":  c #3C160A",
">  c #351B0B",
",  c #3C1C0B",
"<  c #2F1D14",
"1  c #371F15",
"2  c #3D210D",
"3  c #3E2619",
"4  c #410B00",
"5  c #4A1201",
"6  c #481707",
"7  c #421E0D",
"8  c #421D11",
"9  c #4A1F10",
"0  c #511D10",
"q  c #5E1C13",
"w  c #45220E",
"e  c #4B230D",
"r  c #45280F",
"t  c #4B290F",
"y  c #54230C",
"u  c #5A200B",
"i  c #54290F",
"p  c #462112",
"a  c #4B2411",
"s  c #462A12",
"d  c #4C2C11",
"f  c #412719",
"g  c #512512",
"h  c #532D13",
"j  c #542B17",
"k  c #5A2D15",
"l  c #463614",
"z  c #553114",
"x  c #5B3316",
"c  c #5E3418",
"v  c #5F3C1B",
"b  c #66230D",
"n  c #672817",
"m  c #652C16",
"M  c #632F19",
"N  c #742F17",
"B  c #623317",
"V  c #693517",
"C  c #633519",
"Z  c #6A361B",
"A  c #66381A",
"S  c #6C3A1D",
"D  c #763619",
"F  c #713D1E",
"G  c #543324",
"H  c #5A3720",
"J  c #643C23",
"K  c #6E3C20",
"L  c #6F3F28",
"P  c #723E21",
"I  c #7C3C25",
"U  c #484D16",
"Y  c #5B4F1D",
"T  c #5E541E",
"R  c #6C411E",
"E  c #76411E",
"W  c #62541F",
"Q  c #5E5A20",
"!  c #6E4124",
"~  c #69452B",
"^  c #754123",
"/  c #7A4525",
"(  c #7C4826",
")  c #73452A",
"_  c #7F4428",
"`  c #7E4B2A",
"'  c #6B5C23",
"]  c #745C25",
"[  c #6B4C36",
"{  c #6A6625",
"}  c #756B28",
"|  c #8F3B12",
" . c #983A12",
".. c #814626",
"X. c #804927",
"o. c #89452B",
"O. c #834D2B",
"+. c #894C2E",
"@. c #944B2D",
"#. c #9D4C2D",
"$. c #86512E",
"%. c #89522E",
"&. c #855B2F",
"*. c #864D36",
"=. c #865331",
"-. c #8B5531",
";. c #8E5934",
":. c #8C5C3A",
">. c #925430",
",. c #915B36",
"<. c #945E39",
"1. c #A55737",
"2. c #B65E3A",
"3. c #8D6334",
"4. c #836E31",
"5. c #8B6D34",
"6. c #976137",
"7. c #96613B",
"8. c #9B663E",
"9. c #9D683F",
"0. c #887A34",
"q. c #A8663B",
"w. c #A1693F",
"e. c #BB653E",
"r. c #C3693C",
"t. c #976646",
"y. c #9B6741",
"u. c #9E6941",
"i. c #9C6C4A",
"p. c #9F704B",
"a. c #9F7155",
"s. c #A46646",
"d. c #AD6241",
"f. c #A36C43",
"g. c #A26D44",
"h. c #A16E49",
"j. c #B76944",
"k. c #B46D48",
"l. c #A77046",
"z. c #A87247",
"x. c #A2714C",
"c. c #AD744C",
"v. c #B1744B",
"b. c #A47552",
"n. c #A87855",
"m. c #A97955",
"M. c #AB7E5B",
"N. c #B97B56",
"B. c #C76C44",
"V. c #D06B42",
"C. c #C9754B",
"Z. c #C97852",
"A. c #E57949",
"S. c #EC7B4E",
"D. c #F37F4F",
"F. c #E87F52",
"G. c #FF7F5C",
"H. c #77812D",
"J. c #728B2E",
"K. c #7A8930",
"L. c #7F9734",
"P. c #8B8B38",
"I. c #869738",
"U. c #899D3A",
"Y. c #88A43B",
"T. c #AE805C",
"R. c #B78053",
"E. c #B3825C",
"W. c #B28460",
"Q. c #B88966",
"!. c #BF997B",
"~. c #CB8058",
"^. c #D8865D",
"/. c #EB8559",
"(. c #F28454",
"). c #FB8452",
"_. c #F5875A",
"`. c #FE8C5B",
"'. c #FF925D",
"]. c #E4A759",
"[. c #C78E68",
"{. c #D28A61",
"}. c #D98A61",
"|. c #C09A7C",
" X c #D09972",
".X c #E99666",
"XX c #E7966B",
"oX c #EC9A6D",
"OX c #FF9460",
"+X c #FF9A64",
"@X c #F4986B",
"#X c #E69B71",
"$X c #F49D71",
"%X c #EAA178",
"&X c #F1A176",
"*X c #FEA273",
"=X c #F4A579",
"-X c #FFAB7C",
";X c #FFBA74",
":X c #FFB17C",
">X c #8ED745",
",X c #91DF47",
"<X c #8FE347",
"1X c #91EB49",
"2X c #E6A882",
"3X c #F3AC82",
"4X c #FFAE81",
"5X c #FAB488",
"6X c #F8BC96",
"7X c #F8C39E",
/* pixels */
"u.8.7.8.9.9.9.9.9.8.f.f.7.7.f.z.g.9.8.9.9.9.9.9.9.9.9.9.9.9.9.9.8.8.9.8.8.9.9.9.8.9.9.9.7.u.u.8.9.7.",
"8.u.f.8.7.8.9.u.9.f.,.C k x A ` 7.z.l.9.9.8.7.8.8.9.9.8.8.9.9.9.8.8.9.8.8.9.9.9.8.u.8.;.;.m.Q.x.9.8.",
"9.8.8.T.b.8.9.8.u.u.k e k h e e k ^ 7.m.z.f.u.7.u.u.9.8.8.u.8.7.9.u.9.9.9.9.u.8.9.u.u./ %.x.m.i.7.u.",
"u.;.,.W.m.7.u.8.u.u.a , j x k k h y h J ! E.7X X6.f.u.8.u.g.g.u.8.9.u.9.9.8.8.8.8.9.g.=.Z O.6.6.8.u.",
"u.=.Z F ` 7.f.8.8.f.=.p 8 8 e e e a a e * ) 7Xi.6 Z 7.8.;.O.M.!.m.6.7.8.8.7.7.8.8.8.8.u.;.-.8.9.7.7.",
"8.7.` ^ $.;.;.7.7.7.f.7.` ) ) ) ) J A ( O.:.6XQ.C A 7.R.g.^ ^ t.u.,.<.7.7.6.6.7.7.7.7.7.8.,.7.6.u.y.",
"<.7.9.9.7.` =.7.7.,.,.7.w.f.f.f.w.9.7.<.9.;.[.6X9.6.<.g.9.8.O./ %.;.7.7.7.,.,.7.7.<.<.,.8.l.7.<.b.7.",
",.,.,.,.<.,.,.,.,.h.8.,.,.,.,.;.,.<.7.;.,.%.<.2XM.M.y.%.;.<.7.7.,.<.<.,.,.x.x.;.,.<.,.,.7.g.7.,./ O.",
",.,.;.,.,.,.,.,.$.:.7.,.,.,.,.;.,.,.,.,.,.;.$.2X Xp.y.-.,.,.;.;.,.,.,.;.( b.W.,.;.,.,.,.;.-.,.;.-.,.",
";.;.;.;.;.;.;.,.=.^ -.;.-.;.;.;.;.;.;.;.;.;.O.3X6XE $.8.,.;.;.;.;.;.;.,./ ^ ,.,.;.;.;.;.%.%.;.;.,.;.",
"-.;.$.S ^ %.;.%.;.,.-.,.f.;.-.;.-.-.;.-.-.O.8.3Xa.> d C ` ,.;.;.-.;.-.-.;.O.%.$.$.;.-.-.<.7.-.;.-.-.",
"-.;.%.:.t.;.%.-.-.-.%.,.f.;.-.-.-.%.-.;.-.,.` f X $   1 7.>.-.%.-.;.-.-.-.;.;.-.-.-.%.%.E.b.O.%.-.-.",
"-.$.%.W.|.m.%.;.;.-.;.O.O.;.;.-.-.;.;.-.-.w.p   > X G 6Xc.^ ;.-.-.;.-.-.;.+.+.-.-.;.-.-.=.^ $.-.-.-.",
",.%.^ ;.M.b.-.O.-.;.-.-.-.-.-.$.<.v.;.%.;.,., X X 3 3X%XN.;.$.;.-.$.-.5.P.&.4.;.-.-.;.-.^ ` ;.;.-.-.",
"<.%.%./ -.,.$.I o.;.;.-.%.-.-.-.;.<.-.-.<.) O # . ~ #XN.5Xf./ ;.;.O.5.U.Y.U.U.3.-.-.-.;.,.,.;.;.-.;.",
";.-.,.;.$.0.I.5.0.3.-.%.;.;.;.;.-.$.;.;.8.! X $ O ; {.oX&Xv./ %.$.+.-.3.;.;.-.;.;.;.;.;.-.-.;.$.$.;.",
"%.;.-.O.5.U.Y.U.I.&._ b.M.%.$.O.O.O.O.O.O.^ # O   + {.oXN.%./ / / / ( _ _ _ X.O.O.O.O.` / / ` ( ^ P ",
"/ ` ( P ^ ` ( / I P / i.=.S ( ^ ^ / ( Z C +.> . L k.%X%X( B ( / ^ / / P ^ / / ^ ^ ^ ^ / / / / ( ^ P ",
"/ / / / ^ / / / / / ( F C ^ ` / ^ ^ ^ / ^ %.a j @X.X}.=Xs.B / / / / / ( / / ( / / / / F Z F / / ( ` ",
"/ / / / / ( ^ ^ ( / / ^ / X.( ( ^ ` $.( ` ^ ^ X.Z.&XXX.X^.D S / ( / / / / / ^ ^ ( ^ F =.<.=./ / ( ( ",
"( / ^ / ( X./ / / / / ( X.K A ( ^ M.m.^ / / ` A v.4X&XoXoXo.u ( / / / ( / ^ / / / $.b.!.|.T.<.( / ^ ",
"/ / / ( P K / / / ^ F F / ^ K / O.8.^ S ( / ^ S ~.-XoX=XXXD b F ^ P / / / / / / / ,.x.M.m.8.6.%.^ / ",
"/ / / / g 7 ^ ( P / a.b.( ^ ( / / S A ^ / ^ P C k.4XoX*X}.m b M m.h.F ^ / / / / ^ S V S ^ %.$./ / / ",
"^ ^ ^ / Z A ^ ^ F ;.Q.E.` S ^ P ^ / K K / ^ ^ S F ^.-X$X$XI 5 P E.;.S ^ K ^ ^ P ^ ^ ^ F F / ^ ^ ^ ^ ",
"^ K P ^ / / ^ P ^ ;.O.F Z ^ P P ^ ^ K K ^ S P / A i Z.-X-X1.4 Z ^ x P P k P ^ P ^ ^ ^ ^ ^ P P P P P ",
"P P ^ ^ P P P P K P C B K P P P K P P P P P P ^ S e u ^.:X@Xm 5 Z ^ ^ P P P P ^ P P P P P P S K P S ",
"K K j k P P Z S S S S P P K P S Z P S Z P K P P P C @ N .X4XC.m x Z S P P P Z C P P P P P K P P K P ",
"S S 7 a S S Z S S S P S Z S S S P P P S S S Z Z ..s   5 @.-X*X@Xd.k C S S S Z C S S S S S S Z S S S ",
"Z S Z Z S Z S S Z S A C S S Z K C j A S S S Z A ..>   + b j.*X:X-XB.N c C S S S S Z Z S S S A Z S S ",
"S S S S S S S S S S C C S Z S P k & k P S Z F P P O     O   < s.*XA.| D S 7 B P S Z Z F S S S S S S ",
"S S S S S F g k F S F F Z Z S S S C S Z A F C C Z     X         , D  .r..Xd.( C S S S Z S S S Z Z S ",
"S S Z C S S C C S S Z S S S S S Z F F Z Z F C F 2                   O.;X*X:Xj.i S P k : k F S Z Z S ",
"S S S Z S V Z N m S A S S S S S S S S S F S S x ..1                 s q./._...B S F C g C F S F S F ",
"S S S S S ] } ] ] S Z S S S S S S S S A m k v ( A.'.J       X       3 B F ^ B S S S F F F F F S Z k ",
"S S S S n ] >X1X<XI.Z V S S S S S S Z M U 0.C._.`.+Xr.> O         *.k.d B h g S S C C S S k j F Z k ",
"A A A Z Z V } K.L.H.R M C Z Z S C C Z k J.].G.`.F.@.g B m &   % 1.:Xe.= F k h S A C Z S C k k S Z S ",
"A A A C C Z q q n n C C C A A C C C A h @.`.`.2.a & p g g k 7 C `.+X>.e S S A B A A C C C A S C C A ",
"x C A C C S A h d C C A A k w C A C C t e._._ $ > j G a a g & M (./.k 7 C A C C C A C C A A C B C C ",
"x C C A k h C > > C A C A k h C C A d Z ).S.k , 7 a a , e a > r.+XB., 7 7 k A C C C C A h k A B B C ",
"C C C A ; o j k x C x C C x x C C x h S.'.).V.p > & @ , a > M S.OXB.; a a 9 c C x x C C k k c ~ J B ",
"c x k B h e x A C x j x c c C k x c a o.#.Z g 7 p 7 7 w a ; Z D.OX1.$ 9 : : 0 k x C x c C k c ~ ~ C ",
"c j H J C A x x x x c x x x C x x c a $ $ $ > a a w a p w ; M D.`.M @ s l l W T 0 x c c c e e h h d ",
"h v [ ~ x h c x j x x x x c 7 d C c a , w w a a 7 $ w a w > a ).1.. ; 9 Q J.>X,X{ g k c d , 7 - w d ",
"h x ! C e e c x z x x x x x r h x c h , 7 w , w w w 7 7 7 7 $ r.V.1.(.#.# Y H.J.' d j c w a x h z c ",
"h k i 6 - d x z z z z h d z x z z c c h w ; O ; e w 7 , 7 ; g A.+X+XS.k & g 0 6 g x x z x x h z x z ",
"z t - - t z z z h h z h h z h z d > a x z w $ ; , , 7 7 , + #.).2.C > 2 x x z h z h d z z z d d z h ",
"h d t d z z d d h h h z h h h x r X > x z z z h r w 7 7 , , a C & $ d x h , d z h h d z z h h z h h ",
"d h z z h z ; ; z h d h d d h d z r d d d z s , z h d d d d r r , w z d d r d h d h d d d h h d d h ",
"d d d r d d r r d d d d d d d d , d z d d z r , d d d d h d d d d d d d d d d d d z w X > z d d d d ",
"d d d d d d d d d d d d d d d d , r d d d d d z d d d d d d d d d d d d d d d d d d r $ 2 d d d d d "
};
