/* XPM */
static char *result[] = {
/* columns rows colors chars-per-pixel */
"50 50 244 2 ",
"   c #180100",
".  c #2E0F0F",
"X  c #381807",
"o  c #3A1D0B",
"O  c #3D111D",
"+  c #3E230E",
"@  c #3A2715",
"#  c #0B0332",
"$  c #1A003A",
"%  c #3B1633",
"&  c #3F363F",
"*  c #471A0C",
"=  c #521A0F",
"-  c #4A1819",
";  c #561D13",
":  c #44250E",
">  c #49260D",
",  c #4C2A0E",
"<  c #562D0F",
"1  c #55310E",
"2  c #492712",
"3  c #4C2C11",
"4  c #532511",
"5  c #522E13",
"6  c #5A2E15",
"7  c #5A2618",
"8  c #553114",
"9  c #5B3316",
"0  c #5E3518",
"q  c #5E3C1C",
"w  c #632909",
"e  c #652A16",
"r  c #613316",
"t  c #6A3415",
"y  c #6D3A16",
"u  c #633519",
"i  c #69351B",
"p  c #65381A",
"a  c #6C3A1D",
"s  c #723A15",
"d  c #723D1D",
"f  c #4B1D24",
"g  c #4F1937",
"h  c #492724",
"j  c #562829",
"k  c #5C3527",
"l  c #532937",
"z  c #583238",
"x  c #6E3C20",
"c  c #653729",
"v  c #723E21",
"b  c #773C2B",
"n  c #643636",
"m  c #743A35",
"M  c #57501C",
"N  c #66421D",
"B  c #79421E",
"V  c #6A452A",
"C  c #754123",
"Z  c #7A4525",
"A  c #7D4827",
"S  c #7C452A",
"D  c #7E4B29",
"F  c #6C5825",
"G  c #745926",
"H  c #6B4738",
"J  c #754833",
"K  c #7B5539",
"L  c #6D6B2A",
"P  c #736A27",
"I  c #190247",
"U  c #351945",
"Y  c #230850",
"T  c #3A2659",
"R  c #431F41",
"E  c #4E334B",
"W  c #623B41",
"Q  c #5B434B",
"!  c #6C4B45",
"~  c #6D5548",
"^  c #7A5946",
"/  c #654D5B",
"(  c #756B46",
")  c #5F5868",
"_  c #716F6C",
"`  c #8F343C",
"'  c #B4393B",
"]  c #CC3D3A",
"[  c #844916",
"{  c #BD7214",
"}  c #854A28",
"|  c #834D2B",
" . c #86522E",
".. c #89532E",
"X. c #855A2D",
"o. c #935A2C",
"O. c #814C39",
"+. c #865332",
"@. c #8B5531",
"#. c #8E5934",
"$. c #895A3A",
"%. c #915B35",
"&. c #985E32",
"*. c #935E39",
"=. c #A54F35",
"-. c #B54834",
";. c #8A6736",
":. c #9A6235",
">. c #96613A",
",. c #9B663E",
"<. c #986938",
"1. c #9D683F",
"2. c #907334",
"3. c #97783B",
"4. c #AD6E32",
"5. c #A76B38",
"6. c #A7753B",
"7. c #C8473C",
"8. c #F15236",
"9. c #FF5A3A",
"0. c #C16238",
"q. c #FF6433",
"w. c #FF683A",
"e. c #9F3448",
"r. c #AE3243",
"t. c #8C6A45",
"y. c #9D6941",
"u. c #9B6A47",
"i. c #8D7145",
"p. c #9A7846",
"a. c #8E795D",
"s. c #977556",
"d. c #A26D44",
"f. c #A16F49",
"g. c #A87647",
"h. c #A3724D",
"j. c #A47552",
"k. c #A97A56",
"l. c #AA7C58",
"z. c #BE7E55",
"x. c #CA544A",
"c. c #DA5545",
"v. c #C96057",
"b. c #FA644A",
"n. c #7A8C30",
"m. c #8B8B38",
"M. c #889A39",
"N. c #BD882B",
"B. c #B98A36",
"V. c #88A43B",
"C. c #B9A43C",
"Z. c #D18D10",
"A. c #F8B010",
"S. c #CC902D",
"D. c #D99729",
"F. c #C48732",
"G. c #DDA834",
"H. c #D8B636",
"J. c #EEAF2F",
"K. c #FFAB27",
"L. c #FCB82B",
"P. c #E8B239",
"I. c #FFDA1B",
"U. c #FFC929",
"Y. c #FFD728",
"T. c #EBC53D",
"R. c #F8C337",
"E. c #EED63E",
"W. c #FED83A",
"Q. c #FFE12D",
"!. c #FFF12A",
"~. c #FFE738",
"^. c #FFFA3A",
"/. c #988749",
"(. c #AA8945",
"). c #AD9248",
"_. c #B49245",
"`. c #B99747",
"'. c #A98258",
"]. c #B68459",
"[. c #AA955A",
"{. c #B99553",
"}. c #BFAB4B",
"|. c #B58763",
" X c #AE9266",
".X c #AB9971",
"XX c #BD9677",
"oX c #CF8D59",
"OX c #D4B44C",
"+X c #CEB350",
"@X c #E1BE44",
"#X c #C09A7C",
"$X c #CEB778",
"%X c #8DD544",
"&X c #93EB4A",
"*X c #D5C946",
"=X c #E7C847",
"-X c #EDD14B",
";X c #FDD645",
":X c #FDDA46",
">X c #F5D64A",
",X c #FDDD4A",
"<X c #F2D658",
"1X c #FFE346",
"2X c #F6EB43",
"3X c #FFEA45",
"4X c #FEE34B",
"5X c #FEEA4B",
"6X c #FFF445",
"7X c #FFFD46",
"8X c #FFF44C",
"9X c #FFFE4B",
"0X c #FFE653",
"qX c #FFF855",
"wX c #EFD669",
"eX c #FFFA62",
"rX c #FEED71",
"tX c #003BB1",
"yX c #2A4E90",
"uX c #2755AA",
"iX c #53619A",
"pX c #014DCE",
"aX c #0568DF",
"sX c #2B72CA",
"dX c #0E76EB",
"fX c #7671C6",
"gX c #8B7795",
"hX c #798081",
"jX c #0A82F8",
"kX c #1898FF",
"lX c #259AF4",
"zX c #17B5FF",
"xX c #7DA6EB",
"cX c #B9988B",
"vX c #BAA6AA",
"bX c #D7CC8D",
"nX c #F7EA95",
"mX c #FFFFBE",
"MX c #AAAACE",
"NX c #D5BDD1",
"BX c #B4CEFF",
"VX c #FFFFC8",
"CX c #D6DCFC",
"ZX c #FBFEFF",
/* pixels */
"y.,.>.,.,.,.,.y.,.y.,.1.,.y.1.,.y.,.1.,.y.,.y.y.y.y.,.y.,.y.,.,.y.>.y.,.,.,.1.,.,.y.,.,.>.y.y.,.1.>.",
",.y.u.y.>.,.1.y.1.,.y.,.1.,.,.y.,.>.:.,.y.5.y.*.*.,.,.,.,.,.,.y.,.>.y.,.,.y.,.,.,.y.>.#.#.l.|.h.,.,.",
"1.,.,.l.j.,.,.,.,.y.y.,.,.,.y.,.,.f.k.h.d.,.,.,.y.,.y.,.,.y.,.:.,.y.y.5.,.y.y.,.1.y.y.A ..h.k.f.>.y.",
"y.@.%.].k.>.1.,.,.1.,.,.,.y.,.,.j.XX#X|.d.%.*.d.y.y.y.,.y.d.d.u.,.,.y.,.1.,.,.,.,.y.d.+.i } >.>.1.y.",
"y.+.p d D >.d.,.,.,.,.,.,.1.%.} | t.g.O.m &.*.d.,.*.%.,.#.} '.XXk.>.>.,.,.>.,.,.,.,.,.y.#.@.>.1.>.>.",
",.>.| C  .#.#.>.>.>.>.>.>.>.,...d s t ! ! m $.J #.&.>.z.d.C C u.u.*.*.,.>.>.>.>.>.>.>.,.y.#.>.:.u.,.",
">.>.,.d.>.D +.>.>.%.*.*.%.>.*.,.5.*.$ (.8X^ >.t.$.J m *.6.,.+.Z ..@.>.*.,.%.#.*.*.%.>.*.,.f.>.*.j.>.",
"*.#.#.*.>.%.%.%.%.f.,.#.*.%.*.*.@.W (.OX6X4X1X5XnXbX[.b c :.>.>.%.*.*.%.%.f.h.@.#.>.%.%.>.d.>.%.A | ",
"%.#.#.*.%.*.%.*.| $.>.%.%.%.%.&.n ^ 5X6X;X1X:XW.rXVXVXnXt.c %.@.%.%.%.@.} j.|.%.#.#.%.%.#.@.#.@.@.%.",
"@.#.#.@.@.%.@.%.@.C @.#.@.@.&.m p.2X>X:X:X:X,X:XW.wXnXVXmXa.c &.#.%.#.%.A C %.#.#.#.#.#...@.#.#.#.#.",
"..#. .a C ..@...@.%.@.#.g.&.V W >X9X7X8X8X3X1X1X5X~.^.eXnXrXO.b %.....@.#.| .. .+.@.@...>.>.@.#.@.@.",
"@.@.@.$.u.#...@.@.@. .:.>.E % t.+X/.(.`.(.i.i.(.).t.i.H.~.^.OXn ..@.@.@.@.@.@.@.@.@.+. .|.j.} @.@.@.",
"@. ...|.XXl...@.@.@.@.o.l l <.OXF B.~ U ~ +X-X(.V }.i.R 5X9X9X<.b #.@.@.@...} ..@.@...@.@.C +.@.@.@.",
"#...C #.l.j.@.} @.@.@.o.J n 6.l fXcXH.)._.7XC.I iX+X2XU W ^ ).t.b ..@.;.m.X.;.%.@.@.@.@.C A @.@.@.@.",
"*.....C @.%...b } @.@.@.J z ;.U gXT C.@Xp.9XU I ZXgXG p./.~ Q E O.} 2.M.V.M.M.;...@.@.@.%.#.@.@.@.#.",
"@.@.%.#...2.M.;.3.;...@.%.g (.s.I # *X2Xi.4X! Y E % ! 1X7X7X7X`.c ..#.;.#.%.@.@.@.#.#.@.@.@.@... .@.",
"..@.+.| ;.M.V.M.M.X.Z j.].l ~ ).& E z.oX~ /.).Y # $ `.7X:X:X8X_.j } Z } b } } } | | | D A C A A C v ",
"A D A C C Z Z S b v D d. .8 +X*X[.v.b.b.v.) ( ( ~ ).:X1X:X:X8X`.f Z Z d S v Z v C C v A A C C D C v ",
"Z Z Z Z C S Z C Z Z A N r c +X{.c.q.9.8.q.b.oXb.].6X3X>X:X:X9X(.7 S Z A Z Z Z Z A A A d i v Z Z Z } ",
"Z Z Z Z Z A Z C } Z Z B D z e.q.w.w.w.w.w.w.9.' =.E.5X:X>X5X,XH a A Z A Z Z C Z A C v +.>.@.Z C A A ",
"A Z C Z Z D Z Z C A A A } a l 7.8.7.] ' e.` b <.L.L.;X4X4X7Xp.f } C A A A C A C C | j.#X#X].*.Z C C ",
"Z Z Z Z C C Z Z Z C s d Z B h E 6.F.4.&.4.4.J.U.L.K.K.Y.~.g.j Z C v C A A C A C A %.h.l.j.y.>.@.C Z ",
"Z C Z Z 4 * C Z v S j.h.A C } x V B.R.I.Y.U.L.K.L.U.L.D.+.f d v j.f.v C C Z A A C a t i C ..| A A C ",
"C C C Z i i C C d $.|.].D a v Z N j k X.A.U.U.U.A.Z. XE ; Z v } l.$.d v x C C v C C C d a A C v C C ",
"C x x C Z S v v b @.| a a C v v C B O MXcX[ 4.(.l.MXBXR w s d Z B 0 C B 8 v C x C v C C b v v v v v ",
"x C C C v v v x x v r r x C v v B y - NXxXpXuXCXZXCXXXa./ l - = 1 B s - j B d b v v v v a v x x v x ",
"x x 5 6 v x x x x a x v v x x a a h F.{ yXzXyXcXvX4.A.qXnX$X Xa.! O z #Xp.7 a i v x v x d x v v x v ",
"x p * 4 x x i x x a v x i x a x 6 n qXI.) tX6.Z.D.I.:XW.~.5XqX0X<X[..XqX=Xf i u x a x a x a i x x p ",
"i x i i a i x x a x i 6 x v p d - _.9XP.sXaXS.^.1X,X5X;X=XW.-X$X+X-X3X~.=Xc i d a p x x x x i i x a ",
"p x x x p v a a a a i u a p d e z >X^.[.jXaX{.6X:X,XE. XwXW.W.rXbXs.3.6X-Xk e a a i i v a a i x a x ",
"v a x d a a 4 5 v a d v i i d - 3.9XY.hXkXaX/.~.:X3X`.$X8X;X;XW.wXbXa.H.<Xc e a a d a i d a a i i a ",
"a a p i a x e i x a i a a a a - ).9XR.iXkXdX/.~.,XW..XwXW.:X>X;XE.eXwXoX-Xj i d a v 6 X 6 v a i a x ",
"a a a a d i t e i d i i d d s f `.7XOXsXlXdX_ Q.4X:X{.<X4X:X,X:X-XH.o.=XOXf y a d d u 4 u d a d d d ",
"d a a d i G P G G s i d i d s - (.^.{.dXlXjX_ Y.,X5XG.D.;X;X4X:XT.5.K 9X(.f d s a a d d d d d a i 9 ",
"a p i a e F %X&X&XV.a i a a p ; K 7XoXsXlXjX_ Y.,X;X4XL.K.K.J.D.S.4.=X8XK * 4 a a i u d d 6 5 d i 6 ",
"p y i a i i P n.m.P N u i a p i f -XY.sXzXpXN.^.:X,X,X0X;XL.P.G.P.:X9XOXf w 5 a a u i a u 6 6 a a a ",
"a i y u 0 i ; ; e e i u u p p a * K 7X[.pX) Y.,X;X,X:X:X,X,X4X4X5X4XqXK - a p u p p u u i p a i u u ",
"9 u u u p x x 4 = p u p y 6 : i t O (.^.g.=X8X:X;X:X:X:X>X:X,X,X4X9X_.O t u p r i i 9 u i y i 0 u r ",
"9 u u p 6 5 u X X u p u i 6 5 i u r O %.!.~.;X:X0X,X,X,X,X,X,X5X9X`.f 6 9 0 u p u u p p 5 6 p u r 0 ",
"u u u p X   5 6 9 0 9 0 u 9 9 u u r 7 W =.N.U.W.W.W.W.;X:X~.~.R.<.O 4 p u r r u 6 9 u u 6 5 9 V V r ",
"u 9 1 0 5 > 0 p u 9 7 9 9 0 c 5 8 1 k c.8.r.0.4.N.D.D.G.S.S.5.j . < p 9 * 4 7 6 9 u 0 0 u < 0 V V 0 ",
"9 8 q c u p 9 9 9 9 0 9 9 9 u 9 8 0 5 j e.c.-.# n -.-.=.-.] g : u 9 6 N M F P M ; 9 0 0 9 > > 5 1 , ",
"5 p V V 8 5 0 9 8 9 9 9 9 9 * 3 0 9 9 3 @ h 3 3 e.w.8.q.w.` @ 1 9 9 9 5 n.&X&X%XL 4 5 r , o * X + 3 ",
"5 9 V u > > q 8 8 9 8 9 9 9 2 3 9 9 8 8 0 1 3 8 j m x.c.m @ 1 8 9 9 3 8 N L n.P F 2 5 0 : > 9 1 8 q ",
"5 6 < * X 3 8 8 8 8 8 3 3 8 9 8 8 9 8 8 8 , . + 9 @ 2 h @ 1 q 8 > 8 5 8 5 = * = 4 8 9 8 9 0 5 8 1 8 ",
"9 3 X X 2 8 8 8 8 8 8 5 5 8 8 9 3 o 3 8 8 , o 2 8 8 3 3 1 8 8 3 3 8 8 5 5 8 5 5 8 8 3 8 5 8 3 5 8 8 ",
"8 5 , , 8 8 3 3 5 5 5 8 5 3 5 8 +   o 8 8 8 9 9 8 8 8 8 8 3 8 8 3 3 8 5 3 + 3 8 8 3 3 8 8 5 5 8 3 8 ",
"3 , 8 8 3 8 X X 8 3 3 5 3 3 5 5 8 3 3 3 3 1 : o 3 3 3 , 3 3 3 1 o + 8 5 3 > 3 8 3 3 8 : 3 3 8 2 3 3 ",
"3 3 3 : 3 3 : : 3 3 3 3 3 3 3 3 @ , 1 3 3 3 @ + 3 3 3 3 3 3 @ 1 2 3 3 3 3 3 3 3 3 8 +   X 3 3 3 3 3 ",
", 3 3 3 3 3 3 3 3 3 3 3 3 3 3 3 o + 3 3 3 3 3 1 3 3 3 3 3 3 3 3 3 3 3 3 3 , 3 3 3 3 : X @ 3 3 3 3 3 "
};
