/* XPM */
static char *result[] = {
/* columns rows colors chars-per-pixel */
"50 50 147 2 ",
"   c #160200",
".  c #1B0100",
"X  c #261105",
"o  c #2E1507",
"O  c #371307",
"+  c #3C1703",
"@  c #3C1A06",
"#  c #3D1709",
"$  c #361A0A",
"%  c #3B1D0B",
"&  c #3E220C",
"*  c #421B06",
"=  c #4D150D",
"-  c #441F0C",
";  c #56130F",
":  c #4F1E10",
">  c #511E10",
",  c #641E15",
"<  c #44240D",
"1  c #4B240D",
"2  c #47280F",
"3  c #4D290F",
"4  c #542A0D",
"5  c #462710",
"6  c #4B2510",
"7  c #4C2C11",
"8  c #522512",
"9  c #5A2113",
"0  c #532E13",
"q  c #5A2E15",
"w  c #553114",
"e  c #5B3216",
"r  c #5E3418",
"t  c #5E3B1C",
"y  c #632A17",
"u  c #6A271A",
"i  c #662C19",
"p  c #6A2D1A",
"a  c #613317",
"s  c #6A3617",
"d  c #633519",
"f  c #6A361B",
"g  c #66381A",
"h  c #6D3A1D",
"j  c #70371E",
"k  c #713D1E",
"l  c #643D23",
"z  c #6F3C20",
"x  c #763521",
"c  c #7A3422",
"v  c #723E21",
"b  c #793C24",
"n  c #5A4D1C",
"m  c #53531B",
"M  c #60431B",
"N  c #6E441F",
"B  c #67452B",
"V  c #6B462C",
"C  c #6A492E",
"Z  c #764123",
"A  c #7A4525",
"S  c #714C22",
"D  c #7D4827",
"F  c #7F4429",
"G  c #7E4A29",
"H  c #665A21",
"J  c #785427",
"K  c #735D26",
"L  c #7D5229",
"P  c #7F5D2C",
"I  c #6B4C36",
"U  c #666123",
"Y  c #6A6725",
"T  c #756527",
"R  c #776229",
"E  c #746929",
"W  c #786F29",
"Q  c #6D7027",
"!  c #717E2B",
"~  c #7B7C2E",
"^  c #893F2D",
"/  c #804A27",
"(  c #84472B",
")  c #8B442F",
"_  c #834D2B",
"`  c #8B4D2F",
"'  c #86512E",
"]  c #89522E",
"[  c #825B2D",
"{  c #8B4C30",
"}  c #924F35",
"|  c #865331",
" . c #8B5531",
".. c #8E5934",
"X. c #8B5C3B",
"o. c #905433",
"O. c #915B36",
"+. c #935E39",
"@. c #8D6134",
"#. c #8C6D35",
"$. c #976037",
"%. c #986137",
"&. c #96613A",
"*. c #9B663E",
"=. c #9D683F",
"-. c #8D7337",
";. c #946444",
":. c #9A6641",
">. c #9E6941",
",. c #9D6C4A",
"<. c #A26D44",
"1. c #A16F49",
"2. c #A67046",
"3. c #A3724D",
"4. c #B0794B",
"5. c #A47552",
"6. c #A87751",
"7. c #A97A56",
"8. c #A77A59",
"9. c #AC7E5B",
"0. c #B57F52",
"q. c #75872E",
"w. c #78842E",
"e. c #7C8030",
"r. c #7B8E31",
"t. c #7D9232",
"y. c #848C35",
"u. c #8C8539",
"i. c #839536",
"p. c #849B37",
"a. c #8A9139",
"s. c #8CA43D",
"d. c #84A939",
"f. c #88B83D",
"g. c #AE805C",
"h. c #B3835D",
"j. c #B28461",
"k. c #BB8C65",
"l. c #B3896A",
"z. c #BB9271",
"x. c #BF997B",
"c. c #87D441",
"v. c #8CD443",
"b. c #8DE246",
"n. c #92EB4A",
"m. c #94F14B",
"M. c #C09C80",
/* pixels */
">.*.&.*.*.*.*.*.*.=.*.=.*.>.=.=.=.:.*.>.=.*.=.*.>.*.*.>.=.*.=.*.*.*.*.*.*.*.>.*.*.*.>.*.&.>.>.*.*.&.",
"*.>.<.*.&.*.=.>.>.*.>.*.>.*.*.=.*.%.%.%.*.>.>.*.*.=.=.*.*.=.*.>.*.*.=.*.*.>.*.*.*.>.*...O.6.l.3.*.*.",
"=.*.*.9.6.*.=.*.*.>.=.:.*.*.>.*.*.,.7.6.>.=.>.*.*.=.>.*.*.>.*.$.=.>.*.=.=.=.>.*.*.=.>.D ] 3.7.1.%.>.",
">. .O.h.6.&.>.*.*.=.*.*.*.>.*.*.6.z.M.j.>.O.&.>.*.>.=.*.>.<.,.>.*.*.>.>.=.*.*.*.*.*.<.| f _ &.%.>.>.",
">.| f N G &.>.*.*.*.*.*.*.*.+.G _ ;.,.*. .] &.>.:.+.O.*..._ 7.x.6.*.&.*.*.&.&.*.*.*.*.<... .&.>.%.&.",
"*.&.' Z | ..X.&.%.%.&.&.&.&.*. .k s s /  .&.&.%.%...+.0.2.Z S ;.>.+.+.&.&.&.*.&.&.&.&.%.*.X.&.%.>.:.",
"+.&.*.=.&.G ] &.&.O.+.+.+.$.+.*.*.&.O...&.&.+.+.&.+.%.<.*.*._ D ]  .&.+.&.O.O.&.&.+.+.+.*.2.&.+.6.;.",
"+.+...+.+.O.+.+.+.1.&...+.+.+.O.+.+.&...+.O.+. .1.l.:.] O.+.&.%.O.+.+.+.O.3.,.....+.+.O.%.<.&.O.D _ ",
"......+.O.+.O.+._ X.&...O.O.O...O.O...+.+....._ :.h.:.{ } O.......+... ./ 6.h.....O.O.O.O. .+. .| O.",
" ... . .....] O.] A ] ..] O..... . ... . .O...Z d k F ..#... .........+.D Z +.O. ..... .] ] .. .O. .",
"] ..' h Z ] ..]  .O.] +.<. .]  . . . . . . . .' A b y.v.c.#.) .. . . .] ..' ' ' |  . . .+.+. . . . .",
" . .] X.,...]  . .] ' +.<. . . . .' ]  . . . . .o.o.a.f.a...{  . . .]  . . . . . . .|  .j.6._  . . .",
" .] ] h.x.8.] ]  . ..._ _  . . . . . . . . . . . . .{ ) ^  . .]  ... . . . . . . . . . .| A '  . . .",
"O.] Z  .9.6...G ] .. . .]  . .' +.4.O.]  . . . . . . . .|  . . .] ' ]  . .' _  . .{  .' Z G  . . . .",
"+.] ] A ..+.] D ]  . .] ] ]  . .O.+. . . . . ./ _ .. .]  . . ... .'  . . . . . .{ ..{ ) o.O. . . ...",
"]  .O...' ]  .o..... .] ........ .]  . ... ... . .O. . ..... .' '  . ... . . .@.-.s.u.a.#. . ._ ' ] ",
"'  . .| '  .{  .` ( F 5.9.] _ _ _ / _ _ D G G ' | _ _ ' _ _ / D A A G G G G F [ y.i.y.r.P A D A Z v ",
"D G D Z Z G L W A S D <.| h G Z Z A D f a D Z Z b D Z Z D Z A D v Z D v Z Z A v b x x c b D A D Z v ",
"D Z D Z b P i.d.i.p.P h d b G Z Z Z Z Z Z D D b Z D D v A D Z A A A A D G A D D D Z D k f k D D D D ",
"A D G Z b L R J P L D k D G A D D G ' D G Z Z D G G D D A D Z Z D D A A A D b Z G b v  .+.| Z Z D D ",
"D Z Z D G _ c b b A A D G z d D Z 9.7.Z D Z D D Z z G Z D G b Z D A A G A v A A Z ' 5.x.x.g.+.D Z Z ",
"Z D A D v v D D D Z j k D Z z A / :.A v D D Z D Z d D Z Z D G Z Z v Z D A A A A A +.3.g.8.&.%.` b Z ",
"Z A A A 8 - b D v D 5.,.G b G D D h f Z A Z v D Z D Z D Z D Z Z 5.,.v A A A A D Z h s s A ] ' D Z D ",
"Z b v A g d Z Z k ..k.h.G h v v Z Z z z Z Z Z Z Z D Z z b Z k G 9. .z b l Z Z v Z Z b h k A Z N Z Z ",
"Z z v Z Z D v v b  ._ z z v v z Z Z z z Z h v Z z z b v v b v Z v r v z e v v v Z Z Z b b v z v v v ",
"z Z v Z v v v v z v a a v v v z z v v v v v v b f q v v v v z z f v b z v v v Z z z z v z v z z v z ",
"z z 8 q v z z z h h z v v z z z f v f z v z z p u z z z v z z v x z h z v v f d z z v z z z v v z v ",
"z z 5 : h x f l z h z z f z z h z Z z z h z z S ~ R i l z z f f z z d z z z f f h z z f z z f z z h ",
"f z f f z h z z h h f r z z h h d 8 l x h u E b.m.~ u f f z f f h h z h f v z k h f f z h z d f z z ",
"f h z v f h h f h h f d h f h b q O q v f p S e.T z f f f z z z f h h j f q h h z f f v h h z h f f ",
"z h h h h k 8 8 Z h h Z f f h h h a h f f Z y ; u f N h h f g v q q v h f d h h h h f f h k h f f h ",
"h h i u u f d f h h f f z f h h f k k f f v a q h h f f v f f h h h h f v h h h h v r # q Z h f f z ",
"h S R T T K p j k k s h k k h h h h h j k s N k k h h h h k h h N k s k k f h h h k s 6 d k h h k k ",
"f p t.n.n.v.W f f k h h h h k h h k h h s h h h k k h h k d s v s l V h f k k h h h k Z k k k k h q ",
"h s N ~ w.r.T h i s h h h h s h h h k q 1 h h f e f s s h d f f 4 r V e s r 6 h k d f h j q 0 j f e ",
"f s i , , , y f d d h d g f h s a d h f d s f f q s s d s h h d < * < q Z y 0 h s g s h s q e h s h ",
"f s g d a f d d v s g d d f f g g d g f h a a h h f g s g g d f e 1 3 d f h s d s g a d g f h g g g ",
"e d g d d N f 8 7 g d g s e < g f d g d d d g d a B C g d f e e h h h s d g d d g g d d s g g r g a ",
"r r d g q 8 g $ $ d g d d e 8 g d d q e s r - r e r r 3 r d d g s e e g e e d d r a g g 0 q s d d a ",
"a d d g O . 0 e e d e r d e e g r d r e d d 7 d 0 * + 3 g d r d r r a a d r d d e e d d q 0 r B M a ",
"d e q a 4 2 r g d r 0 r r r d q e r a e r e d d q 0 0 e e r r r 0 e d q > 8 9 q r d e r d 4 r C B a ",
"r 0 t l g g r e e e r e e r d e w e r r a 0 w r a 0 d e e e r e e e q M m U E n > r r r e 1 1 0 0 7 ",
"0 g I V w 7 r w 0 e e e e r % 7 r e w w e e d r 0 % w r e e w w e e q q t.n.n.v.Y 8 q d 6 & < + < 7 ",
"0 e M g 1 2 r e w e 0 e e e 5 8 e e w w e w 5 e e e w w e w w w e e 0 0 t Q ! q.H 6 0 r < 3 e 4 w t ",
"0 0 4 * $ 3 w w w w w 7 7 w e w w r w w e 5 X & e e 0 7 w w w w 5 w 0 w 8 = = = 8 w e w w e w w w w ",
"w 4 @ * 7 w w w w w w 0 w w w w 7 $ 3 w w 7 & 2 w 0 w w w 0 w 0 0 w w 0 w w w w w w 7 w w w 7 7 w w ",
"w 7 3 7 w w 7 7 0 0 0 w 0 7 w w 2   $ e w w e e 7 w 0 w 0 w 0 w 7 7 w w 7 & 7 w 0 7 7 w w 7 0 w w 7 ",
"7 7 w w 0 w $ o w 7 7 0 7 7 0 0 w 2 0 7 5 w 2 $ w 0 7 7 7 7 7 w % & w 7 7 2 7 0 7 w w 5 7 0 w 5 7 7 ",
"7 7 7 5 7 7 2 & 7 7 7 7 7 7 7 7 & 7 w & 7 w & & 7 7 7 7 m & 2 7 5 7 7 7 w 7 7 7 7 w &   & 0 7 7 2 7 ",
"7 7 7 7 7 7 7 0 7 7 7 7 7 7 7 7 & & 7 7 7 7 7 7 7 7 7 7 7 7 7 7 7 7 7 7 7 2 2 7 7 7 2 o & 7 7 7 7 7 "
};
