/* XPM */
static char *result[] = {
/* columns rows colors chars-per-pixel */
"50 50 216 2 ",
"   c #170300",
".  c #2E1507",
"X  c #3C1A06",
"o  c #381A08",
"O  c #362E10",
"+  c #43190A",
"@  c #550D13",
"#  c #5A1E14",
"$  c #44250D",
"%  c #4C250D",
"&  c #47280F",
"*  c #4B2A0F",
"=  c #54250D",
"-  c #4E2411",
";  c #4C2C11",
":  c #4A2815",
">  c #532313",
",  c #5D2415",
"<  c #532E13",
"1  c #5B2D14",
"2  c #58291A",
"3  c #483818",
"4  c #553114",
"5  c #5B3316",
"6  c #5A391C",
"7  c #662B19",
"8  c #642C1A",
"9  c #722E1D",
"0  c #623416",
"q  c #623519",
"w  c #6A341B",
"e  c #62381B",
"r  c #6B3A1C",
"t  c #75361E",
"y  c #5C3A20",
"u  c #752E23",
"i  c #693B24",
"p  c #743223",
"a  c #7A3C27",
"s  c #3C4E16",
"d  c #3D5915",
"f  c #326E02",
"g  c #34680E",
"h  c #336D0E",
"j  c #2B7506",
"k  c #2B7C04",
"l  c #2C790B",
"z  c #357305",
"x  c #397607",
"c  c #347D03",
"v  c #3A7C06",
"b  c #34730E",
"n  c #3A7708",
"m  c #337A0C",
"M  c #3D7909",
"N  c #3B6413",
"B  c #366C12",
"V  c #386E10",
"C  c #424C16",
"Z  c #4C411B",
"A  c #48471A",
"S  c #55471D",
"D  c #445417",
"F  c #435A16",
"G  c #4A5319",
"H  c #55591E",
"J  c #427D0B",
"K  c #476A19",
"L  c #52691E",
"P  c #4C741F",
"I  c #427A18",
"U  c #4B7C1B",
"Y  c #52781E",
"T  c #5D4021",
"R  c #5E4921",
"E  c #5A5927",
"W  c #634223",
"Q  c #684729",
"!  c #7A4424",
"~  c #794729",
"^  c #675A2B",
"/  c #6B4C36",
"(  c #7E5936",
")  c #4D6620",
"_  c #556523",
"`  c #537424",
"'  c #5B7225",
"]  c #67682C",
"[  c #61752B",
"{  c #666D31",
"}  c #766435",
"|  c #863E2A",
" . c #85512E",
".. c #88522E",
"X. c #864E33",
"o. c #954D36",
"O. c #865332",
"+. c #8B5631",
"@. c #8E5934",
"#. c #855D39",
"$. c #8B5A3B",
"%. c #925432",
"&. c #915B36",
"*. c #9B533B",
"=. c #945E39",
"-. c #9B5B39",
";. c #A1573C",
":. c #88643B",
">. c #976037",
",. c #96613A",
"<. c #9B663E",
"1. c #9D683F",
"2. c #A1623E",
"3. c #9A5A42",
"4. c #AB5744",
"5. c #946041",
"6. c #9C6540",
"7. c #9E6941",
"8. c #A46444",
"9. c #AB6345",
"0. c #A36B42",
"q. c #AA674B",
"w. c #B1614A",
"e. c #A5724A",
"r. c #A67552",
"t. c #A87A56",
"y. c #2E8304",
"u. c #338304",
"i. c #398103",
"p. c #378609",
"a. c #3D8D0B",
"s. c #3C9104",
"d. c #3D930B",
"f. c #3C8711",
"g. c #45810D",
"h. c #4A850E",
"j. c #478908",
"k. c #4D8A0B",
"l. c #508C0F",
"z. c #598E08",
"x. c #44950B",
"c. c #4B950E",
"v. c #469A09",
"b. c #4C990B",
"n. c #54940E",
"m. c #478717",
"M. c #4B8612",
"N. c #4E8911",
"B. c #538D12",
"V. c #588F16",
"C. c #4A9415",
"Z. c #499714",
"A. c #569114",
"S. c #599217",
"D. c #539C14",
"F. c #5C9C15",
"G. c #5C9519",
"H. c #5F981A",
"J. c #609C13",
"K. c #60971D",
"L. c #679919",
"P. c #62991C",
"I. c #4EA411",
"U. c #66A11C",
"Y. c #659A21",
"T. c #6B9E24",
"R. c #6BA323",
"E. c #6DA029",
"W. c #72A525",
"Q. c #73A52D",
"!. c #78A82D",
"~. c #76A631",
"^. c #78A732",
"/. c #7CAB33",
"(. c #7EAC38",
"). c #80AE36",
"_. c #82AF39",
"`. c #87B337",
"'. c #86B13D",
"]. c #88B33F",
"[. c #87B340",
"{. c #89B341",
"}. c #8FB846",
"|. c #8FB949",
" X c #90B947",
".X c #93BB4A",
"XX c #94BB49",
"oX c #97BD51",
"OX c #99BD52",
"+X c #B78765",
"@X c #BB8C78",
"#X c #9DC156",
"$X c #A1C35C",
"%X c #A9C764",
"&X c #B1CE6F",
"*X c #B5CD73",
"=X c #B7D678",
"-X c #F3888C",
";X c #C3DA89",
":X c #C9E28F",
">X c #D5E39A",
",X c #FFCCBB",
"<X c #DDE5A6",
"1X c #E3E8AA",
"2X c #E9EEB5",
"3X c #F7E0BD",
"4X c #E7F6B4",
"5X c #FFD8CA",
"6X c #FFD5D6",
"7X c #F4EAC8",
"8X c #F4FCC8",
"9X c #FFFFD5",
"0X c #FEFEDB",
"qX c #FFFCE2",
"wX c #FFFBEB",
"eX c #FFFFFC",
/* pixels */
"7.<.,.<.1.<.1.<.<.<.7.7.<.7.1.1.1.9.9.8.5.,.5.9.0.1.9.w.0.6.0.1.<.<.1.<.<.<.<.6.<.<.1.<.>.7.7.,.<.,.",
"<.7.0.<.>.<.1.7.7.<.<.<.1.<.1.2.9.:.{ ' Y U ` ' ,.w.} { :.9.4.0.<.<.1.<.<.1.1.<.<.7.<.+.&.t.+Xr.<.<.",
"1.1.,.t.r.<.<.<.<.7.7.7.<.1.2.w.} U a.v.D.F.n.s.P ^ f.d.P [ P :.w.8.q.7.<.1.1.<.1.7.7.~  .e.t.0.,.7.",
"7.+.&.+Xt.,.7.<.<.<.6.,.2.q.w.} f.b.L./.[._./.Y.j.x.R.G.C.c.x.P { ' } 4.0.<.<.<.<.<.0.+.w  .,.,.<.7.",
"7. .r r ~ ,.0.<.,.6.,.8.3.{ ^ K x.T.}. X}.}.XX}.Y./..X^.l.B.V.k.c.c.d.` 3.9.8.6.<.<.6.7.@.+.<.1.,.,.",
"<.,. .~  .@.@.,.,.6.9.3.` s.a.G.Q.}.}.'.{.'.{.{. X}.}.{.!.)._.Y.B.G.F.x.] $.#.-.,.,.,.,.6.=.,.,.7.7.",
",.,.7.1.<.~ O.,.4.5.] K p.U.]. X}.{.].{.{._.{.{.{.].'.{.}.}. XXXY.B.V.S.m.m.m.' =.-.=.=.,.e.,.=.r.,.",
">.@.@.@.,.@.>.;.( M j.D.T.}. X{.].].].{.{.{.{.{.].{.{.].{.{.]..X/.j.B.B.n.F.J.d.E 4.-.=.,.0.,.&.~  .",
"@.@.@.=.&.=.-.O.V b./.}.}.{.{.{.].{.].].).'.{.].{.{.[.{.'.{.{.{._.T.^.(.K.B.G.A.U ' $.-.@.+.=.+.O.=.",
"@.@.@.+.+.+.*.] d./.#X{.{.[.{.{.[.[.[.'.}.{./.'.{.].{.].{.{.{.{.{.}..X#X}.K.B.S.F.d.P o.*.+.+.+.@.@.",
"..&. .r ! %.o.L D..X}.`.{.{.{.[.{.{.'.!.8X=X!.}.'.{.{.{.{.{.].{.{.}._.Y.K.K.V.V.A.F.N._ ( *.+.+.+...",
"+.+...#.e.*.Q K R.(.Q.[.{.[.{.{.{.'.`.=X5X3X8XOX/.{.{.[.{.{.'.{.{.{.'.~.G.N.V.B.S.S.n.x.m.{ o.+...+.",
"+. ...+X@X' s.D.G.G.(.{.{.{.[.{.].'./.:X6XwX:X/._.{.{.'.[.{.'.{.{.[.{.}..XY.S._.'.[.^.H.n.x._ o.+.+.",
"%. .! *.[ s.R.].G./..X[.[.[.{.{.[.{.W.*X8X>X{./.{.{.{.{.{.].{.{.{.}.T.z.[.}.Y.[.}.{..X}.K.A.Z.^ o.+.",
",...o.W a.U.|.'.Y.{.{.[.[.{.{.[.{.{.'.OX}.!.'.{.{.{.{.{.{.{.{.[.{.}.L.z._..X~.~.}.[.[.}.{.S.D.I X.-.",
"+.+.;.^ a./..X(.Q.}.{.{.[.[.[.{.[.{.{.)./.[.[.{.{.{.{.'.{.{.'.{.{.{._.).(._.[._.{.[.[.[.XXT.n.C.^ o.",
"+.+...P A._.}.'.[._.{.{.[.{.{.{.{.{.[.{.{.{.{.{.{.{.'.{.{.'.{.{.{.'.}.}._.'.{.{.{.{.{.{. X^.B.D.L p ",
"! | a I J._.}.{.{.{.{.{.{.{.{.{.[.{.{.].'.{.{.'.'.{.{.{.{.{.{.{.{.'.[.{.{.[.{.'.{.{.[.{.}./.V.D.L p ",
"| Q L m.A._.}.{.}.{.{.{._.{.{.{.{.{.{.{.{.{.{.{.{.{.{.{.'.{.{.'.{.{.{.{.{.[.{.{.{.{.{.{.XX~.B.D.L | ",
"! P I.S.h.Y.}.{.)._.{.{.{.{.{.{.{.{.{.{.{.{.{.{.{.{.'.{.{.{.{.{.{.{.'.{.{.{.[.{.'.{.{.'.}.T.n.D.L | ",
"Q Z.J.G.~.E.(.{.T._.{.{.{.{.{._.|.!.L.).}.'.'.{.{.'.{.{.{.'.{.{.].{.[.{.].].].].{.{.{.{.{.G.n.m.~ a ",
"! ) C.K. XXX{.'.{.{.{.{.'.{.{.{.XXL.j.^.XX/.).{.{.{.{.{.{.{.{.{.{.{.{.{.`.W.).}.{.{.{.{.}.Q.A.I i a ",
"a ) c.K.}.{.{.}.{.{.{.{.{.{.{.{.{._.^.[.{.'.{.{.{.{.{.'.'.{.{.'.{.{.{.'.}.;X#X/._.'.{.{.oX_.B.D.U a ",
"i g.F.A._.}.{._.'.{.{.].{.'.{.{.[.{.XX[.'.{.{.{.{.'.{.{.{.{.{.{.{.{.{.P.*XeX;Xz.).'.{.{./.K.B.F.U Q ",
"S f.P.k.E.#X/.z./.}.{.{.{.[.{.'.{.{.{.{.{.{.{.{.{.{.'.{.{.{._.{.{.'.'.!.;XwX<X>X8X$X/.{.S.k.G.S.Z.R ",
"T p.H.S.B./..X!._.}.{.{.'.{.[.{.{.'.{.{.{.{.'.{.{.{.{.{.{.{.{.{.].'./.4X0X-X,XeX9XoX/.{.K.A.S.S.m.R ",
"i N D.H.B.B.Q.}.}._.{.{.{.{.'.{.{.'.{.'.'.{.'.{.'.{.{.{.{.{.{.{.{.{._.oX<X6X0X<X/./.XX'.S.A.G.D.L p ",
"p d c A.G.A.k.Q. X{.].'.{.{.{.{.{.{.{.[.{.{.{.[.{.{.'.{.[.{.{.{.{.{./.{.9X0XqX2XE.}.XXY.B.S.A.F.m.i ",
"y j v B.G.A.G.'.{.{._._.'._.{.].{.{.'.{.[.[.[.[.{.{.{.'.{.{.{.{.{.[./.$X7X%X$X&X].{.Y.l.G.A.G.G.Z.R ",
"R j A.K.S.B.Y.{.}.Q.$X4X).).{.].{.[.{.{.{.{.[.[.'.{.{.{._.{.{.{.{.[.{._.`.L.A.R.Q.G.l.S.S.S.A.G.I.H ",
"F k N.H.G.N.Y.}._.{.>X5X2X>X^.'.{.{.{.'.{.{.{.{.{.{.{.{.{.{.{.{.{.[.}..X'.D.k.B.l.A.G.S.S.S.S.S.D.E ",
"D k g.H.G.V.V._._.oX1X6XqX*X).'.{.{.{.{.'.{.{.'.{.{.{.{.{.|.}._.{.}._./.K.k.S.S.S.G.G.S.S.G.A.H.C.Z ",
"S l c N.G.S.B.Y.XX/.1XwX:XW.].].[.{.}.}.[.[.[.{._.{.{. X].T.'..X.X].S.k.B.G.S.G.A.J B.G.V.V.G.F.g p ",
"t S h f N.G.S.l.K.'.%X].L.E..XXXXX'.K./..X}.{.[.{. X.X{.K.k.G.^.~.G.B.S.S.S.S.G.B.x B.B.G.G.G.y.C 7 ",
"w u D k h.H.G.S.B.A.k.k.k.B.E./.~.G.k.V.Q.[.}.}.}.'.~.V.l.S.V.l.l.B.S.S.S.S.S.S.V.B.G.G.H.V.u.h i 7 ",
"w 9 F k h.H.S.S.S.S.A.A.S.S.B.A.N.B.G.V.k.G.Y.Y.K.G.N.B.K.S.S.S.S.S.S.S.S.S.S.S.G.K.G.V.M.c j y t r ",
"r 9 G k M G.G.M.G.S.S.S.S.S.S.S.S.S.S.S.S.A.B.B.B.V.S.S.B.B.S.S.S.S.S.S.S.S.S.G.M.M M x z h S 9 q r ",
"0 7 y m c J G.J h.G.S.S.S.S.S.S.S.S.S.S.S.S.S.G.k.x l.K.J h.K.V.S.S.S.S.S.S.G.G.n f x n y.N 9 8 q q ",
"5 0 9 A p.y.p.M z g.S.G.S.S.S.S.S.S.S.S.S.S.S.G.J f B.K.V.S.S.S.S.S.S.S.S.S.L.N.x x n M l G 7 0 0 5 ",
"q q 0 w O O g j h.G.S.S.S.S.S.S.S.S.S.S.S.S.S.G.V.N.V.S.V.S.S.S.S.S.G.G.K.K.B.z n m M c N 8 1 Q i 0 ",
"5 5 1 0 # @ C k J G.P.S.G.S.S.S.S.S.S.S.S.A.S.A.G.G.S.S.S.S.S.S.G.H.N.M M.J z x n n n y.F , 5 Q Q 0 ",
"0 4 6 i 6 w 6 m y.c M.V.V.S.G.S.S.S.G.G.V.G.S.S.S.S.S.S.S.S.S.S.G.H.M f z z n M c c y.B 6 % % = < * ",
"4 e / Q 5 * 8 Z d d j c z M.P.G.G.G.S.G.G.S.S.S.G.S.S.G.G.S.S.G.H.M.z n x n M i.b D C i > X + X $ < ",
"< 5 W q % * 5 8 7 6 l c z z N.S.G.A.M J G.K.G.G.G.G.G.B.V.G.G.S.g.z x M n v u.m Z 2 , q $ * 5 4 4 5 ",
"4 1 = $ o ; 5 < 1 1 A h v n z M J z z z M M.V.A.V.N.g.z n J M n z m v u.p.m N 3 , 1 5 4 4 5 4 4 5 4 ",
"4 = X X ; 4 4 4 < < # Z y.v n n z c M x z z x x n z z n n x z n v i.N d C Z 2 > 4 < ; 4 4 4 ; < 4 4 ",
"4 * * * 4 4 < ; < ; < 2 s l u.p.B g u.v v M x x v c v v v v i.p.b s 1 2 > + ; 4 < ; < 4 4 ; < 4 4 ; ",
"; < 4 4 4 4 . . 4 4 ; < > 3 s C 2 A m B h i.v u.b d V m m m h F O + < ; ; & ; < ; < ; ; ; < ; ; ; ; ",
"; ; ; & ; ; & $ ; ; ; 3 * = > > X $ 3 < A b b N 3 > : 3 A 3 : > - : ; ; ; ; & ; ; 4 O   o 4 > * * ; ",
"; ; ; & ; ; ; ; ; ; ; ; ; * ; ; o $ > ; : : 3 > - & : > - % * & ; * ; ; ; * ; ; ; ; % . O ; ; ; ; ; "
};
